<svg width="43" height="24" viewBox="0 0 43 24" fill="none" xmlns="http://www.w3.org/2000/svg">
<g clip-path="url(#clip0_2683_10118)">
<mask id="path-1-outside-1_2683_10118" maskUnits="userSpaceOnUse" x="-1" y="-0.200195" width="26" height="24" fill="black">
<rect fill="white" x="-1" y="-0.200195" width="26" height="24"/>
<path fill-rule="evenodd" clip-rule="evenodd" d="M22.4 12.7998H22.8C23.48 12.7998 24 13.3198 24 13.9998C24 14.6798 23.48 15.1998 22.8 15.1998H22.3294L21.24 19.5198C20.9283 20.6887 19.8573 21.5537 18.6189 21.5976L19.12 22.5998C19.2 22.7997 19.12 23.0397 18.96 23.1198C18.92 23.1998 18.88 23.1998 18.8 23.1998C18.64 23.1998 18.52 23.1198 18.44 22.9598L17.76 21.5998H6.66L5.96002 22.9998C5.88 23.1198 5.76 23.1998 5.60002 23.1998C5.56003 23.1998 5.48002 23.1998 5.44003 23.1598C5.24006 23.0798 5.16005 22.8398 5.28005 22.6398L5.80003 21.5998H5.48002C4.2 21.5998 3.08002 20.7198 2.76 19.4798L1.6807 15.1998H1.2C0.519984 15.1998 0 14.6798 0 13.9998C0 13.3197 0.519984 12.7998 1.2 12.7998H1.23872C1.41966 11.8772 2.21738 11.1998 3.20002 11.1998C3.56002 11.1998 3.92002 11.3198 4.24003 11.4798C4.56005 10.8398 5.24006 10.3998 6.00005 10.3998C6.64003 10.3998 7.20005 10.7198 7.60003 11.1998C8.58267 11.1998 9.38039 11.8772 9.56133 12.7998H21.6V4.39976C21.6 2.83976 20.36 1.59977 18.8 1.59977C17.3001 1.59977 16.5367 2.7709 16.4172 4.04196C17.3309 4.22937 18 5.02324 18 5.99979C18 6.23979 17.84 6.39977 17.6 6.39977H14.4C14.16 6.39977 14 6.23979 14 5.99979C14 5.01232 14.6842 4.21179 15.6137 4.0361C15.7562 2.11259 17.0295 0.799805 18.8 0.799805C20.8 0.799805 22.4 2.39979 22.4 4.3998V12.7998ZM14.88 5.59981H17.16C17 5.11981 16.56 4.79979 16.04 4.79979C15.52 4.79979 15.04 5.11981 14.88 5.59981ZM4.16002 12.4398C3.88003 12.1598 3.56002 11.9998 3.20002 11.9998C2.67998 11.9998 2.24002 12.3198 2.07998 12.7998H8.76C8.60002 12.3198 8.16 11.9998 7.64002 11.9998H7.52002C7.35998 12.0398 7.16002 11.9598 7.08 11.7998C6.87998 11.3998 6.48 11.1998 6.03998 11.1998C5.43998 11.1998 4.95998 11.6398 4.83998 12.2398C4.8 12.3998 4.71998 12.5198 4.56 12.5598C4.40002 12.5998 4.24003 12.5598 4.16002 12.4398ZM18.56 20.7998C19.48 20.7998 20.28 20.1598 20.52 19.2798L21.48 15.1998H2.52L3.56002 19.2798C3.80002 20.1598 4.59998 20.7998 5.52 20.7998H18.56ZM22 14.3998H22.8C23.04 14.3998 23.2 14.2398 23.2 13.9998C23.2 13.7598 23.04 13.5998 22.8 13.5998H9.19997H1.59998H1.2C0.96 13.5998 0.800016 13.7598 0.800016 13.9998C0.800016 14.2398 0.96 14.3998 1.2 14.3998H2.00002H22ZM14.8 7.80019C14.8 8.04019 14.64 8.20018 14.4 8.20018C14.16 8.20018 14 8.04019 14 7.80019V7.60018C14 7.36018 14.16 7.2002 14.4 7.2002C14.64 7.2002 14.8 7.36018 14.8 7.60018V7.80019ZM14.4 10.0398C14.64 10.0398 14.8 9.83977 14.8 9.6398V9.19979C14.8 8.95979 14.64 8.7998 14.4 8.7998C14.16 8.7998 14 8.95979 14 9.19979V9.6398C14 9.87976 14.16 10.0398 14.4 10.0398ZM14.8 11.2001C14.8 11.4401 14.64 11.6001 14.4 11.6001C14.16 11.6001 14 11.4401 14 11.2001V11.0001C14 10.7601 14.16 10.6001 14.4 10.6001C14.64 10.6001 14.8 10.7601 14.8 11.0001V11.2001ZM16 8.20018C16.24 8.20018 16.4 8.04019 16.4 7.80019V7.60018C16.4 7.36018 16.24 7.2002 16 7.2002C15.76 7.2002 15.6 7.36018 15.6 7.60018V7.80019C15.6 8.04019 15.76 8.20018 16 8.20018ZM16 10.0398C15.76 10.0398 15.6 9.8798 15.6 9.6398V9.19979C15.6 8.95979 15.76 8.7998 16 8.7998C16.24 8.7998 16.4 8.95979 16.4 9.19979V9.6398C16.4 9.83977 16.24 10.0398 16 10.0398ZM15.6 11.2001C15.6 11.4401 15.76 11.6001 16 11.6001C16.24 11.6001 16.4 11.4401 16.4 11.2001V11.0001C16.4 10.7601 16.24 10.6001 16 10.6001C15.76 10.6001 15.6 10.7601 15.6 11.0001V11.2001ZM18 7.80019C18 8.04019 17.84 8.20018 17.6 8.20018C17.36 8.20018 17.2 8.04019 17.2 7.80019V7.60018C17.2 7.36018 17.36 7.2002 17.6 7.2002C17.84 7.2002 18 7.36018 18 7.60018V7.80019ZM17.2 9.6398C17.2 9.8798 17.36 10.0398 17.6 10.0398C17.84 10.0398 18 9.83982 18 9.6398V9.19979C18 8.95979 17.84 8.7998 17.6 8.7998C17.36 8.7998 17.2 8.95979 17.2 9.19979V9.6398H17.2ZM17.6 11.6001C17.36 11.6001 17.2 11.4401 17.2 11.2001V11.0001C17.2 10.7601 17.36 10.6001 17.6 10.6001C17.84 10.6001 18 10.7601 18 11.0001V11.2001C18 11.4401 17.84 11.6001 17.6 11.6001Z"/>
</mask>
<path fill-rule="evenodd" clip-rule="evenodd" d="M22.4 12.7998H22.8C23.48 12.7998 24 13.3198 24 13.9998C24 14.6798 23.48 15.1998 22.8 15.1998H22.3294L21.24 19.5198C20.9283 20.6887 19.8573 21.5537 18.6189 21.5976L19.12 22.5998C19.2 22.7997 19.12 23.0397 18.96 23.1198C18.92 23.1998 18.88 23.1998 18.8 23.1998C18.64 23.1998 18.52 23.1198 18.44 22.9598L17.76 21.5998H6.66L5.96002 22.9998C5.88 23.1198 5.76 23.1998 5.60002 23.1998C5.56003 23.1998 5.48002 23.1998 5.44003 23.1598C5.24006 23.0798 5.16005 22.8398 5.28005 22.6398L5.80003 21.5998H5.48002C4.2 21.5998 3.08002 20.7198 2.76 19.4798L1.6807 15.1998H1.2C0.519984 15.1998 0 14.6798 0 13.9998C0 13.3197 0.519984 12.7998 1.2 12.7998H1.23872C1.41966 11.8772 2.21738 11.1998 3.20002 11.1998C3.56002 11.1998 3.92002 11.3198 4.24003 11.4798C4.56005 10.8398 5.24006 10.3998 6.00005 10.3998C6.64003 10.3998 7.20005 10.7198 7.60003 11.1998C8.58267 11.1998 9.38039 11.8772 9.56133 12.7998H21.6V4.39976C21.6 2.83976 20.36 1.59977 18.8 1.59977C17.3001 1.59977 16.5367 2.7709 16.4172 4.04196C17.3309 4.22937 18 5.02324 18 5.99979C18 6.23979 17.84 6.39977 17.6 6.39977H14.4C14.16 6.39977 14 6.23979 14 5.99979C14 5.01232 14.6842 4.21179 15.6137 4.0361C15.7562 2.11259 17.0295 0.799805 18.8 0.799805C20.8 0.799805 22.4 2.39979 22.4 4.3998V12.7998ZM14.88 5.59981H17.16C17 5.11981 16.56 4.79979 16.04 4.79979C15.52 4.79979 15.04 5.11981 14.88 5.59981ZM4.16002 12.4398C3.88003 12.1598 3.56002 11.9998 3.20002 11.9998C2.67998 11.9998 2.24002 12.3198 2.07998 12.7998H8.76C8.60002 12.3198 8.16 11.9998 7.64002 11.9998H7.52002C7.35998 12.0398 7.16002 11.9598 7.08 11.7998C6.87998 11.3998 6.48 11.1998 6.03998 11.1998C5.43998 11.1998 4.95998 11.6398 4.83998 12.2398C4.8 12.3998 4.71998 12.5198 4.56 12.5598C4.40002 12.5998 4.24003 12.5598 4.16002 12.4398ZM18.56 20.7998C19.48 20.7998 20.28 20.1598 20.52 19.2798L21.48 15.1998H2.52L3.56002 19.2798C3.80002 20.1598 4.59998 20.7998 5.52 20.7998H18.56ZM22 14.3998H22.8C23.04 14.3998 23.2 14.2398 23.2 13.9998C23.2 13.7598 23.04 13.5998 22.8 13.5998H9.19997H1.59998H1.2C0.96 13.5998 0.800016 13.7598 0.800016 13.9998C0.800016 14.2398 0.96 14.3998 1.2 14.3998H2.00002H22ZM14.8 7.80019C14.8 8.04019 14.64 8.20018 14.4 8.20018C14.16 8.20018 14 8.04019 14 7.80019V7.60018C14 7.36018 14.16 7.2002 14.4 7.2002C14.64 7.2002 14.8 7.36018 14.8 7.60018V7.80019ZM14.4 10.0398C14.64 10.0398 14.8 9.83977 14.8 9.6398V9.19979C14.8 8.95979 14.64 8.7998 14.4 8.7998C14.16 8.7998 14 8.95979 14 9.19979V9.6398C14 9.87976 14.16 10.0398 14.4 10.0398ZM14.8 11.2001C14.8 11.4401 14.64 11.6001 14.4 11.6001C14.16 11.6001 14 11.4401 14 11.2001V11.0001C14 10.7601 14.16 10.6001 14.4 10.6001C14.64 10.6001 14.8 10.7601 14.8 11.0001V11.2001ZM16 8.20018C16.24 8.20018 16.4 8.04019 16.4 7.80019V7.60018C16.4 7.36018 16.24 7.2002 16 7.2002C15.76 7.2002 15.6 7.36018 15.6 7.60018V7.80019C15.6 8.04019 15.76 8.20018 16 8.20018ZM16 10.0398C15.76 10.0398 15.6 9.8798 15.6 9.6398V9.19979C15.6 8.95979 15.76 8.7998 16 8.7998C16.24 8.7998 16.4 8.95979 16.4 9.19979V9.6398C16.4 9.83977 16.24 10.0398 16 10.0398ZM15.6 11.2001C15.6 11.4401 15.76 11.6001 16 11.6001C16.24 11.6001 16.4 11.4401 16.4 11.2001V11.0001C16.4 10.7601 16.24 10.6001 16 10.6001C15.76 10.6001 15.6 10.7601 15.6 11.0001V11.2001ZM18 7.80019C18 8.04019 17.84 8.20018 17.6 8.20018C17.36 8.20018 17.2 8.04019 17.2 7.80019V7.60018C17.2 7.36018 17.36 7.2002 17.6 7.2002C17.84 7.2002 18 7.36018 18 7.60018V7.80019ZM17.2 9.6398C17.2 9.8798 17.36 10.0398 17.6 10.0398C17.84 10.0398 18 9.83982 18 9.6398V9.19979C18 8.95979 17.84 8.7998 17.6 8.7998C17.36 8.7998 17.2 8.95979 17.2 9.19979V9.6398H17.2ZM17.6 11.6001C17.36 11.6001 17.2 11.4401 17.2 11.2001V11.0001C17.2 10.7601 17.36 10.6001 17.6 10.6001C17.84 10.6001 18 10.7601 18 11.0001V11.2001C18 11.4401 17.84 11.6001 17.6 11.6001Z" fill="#0D1117"/>
<path d="M22.4 12.7998H22.2V12.9998H22.4V12.7998ZM22.3294 15.1998V14.9998H22.1735L22.1354 15.1509L22.3294 15.1998ZM21.24 19.5198L21.4333 19.5713L21.4339 19.5687L21.24 19.5198ZM18.6189 21.5976L18.6118 21.3978L18.3009 21.4088L18.4401 21.6871L18.6189 21.5976ZM19.12 22.5998L19.3057 22.5255L19.3026 22.5178L19.2989 22.5103L19.12 22.5998ZM18.96 23.1198L18.8705 22.9409L18.8109 22.9707L18.7811 23.0304L18.96 23.1198ZM18.44 22.9598L18.2611 23.0492L18.2611 23.0492L18.44 22.9598ZM17.76 21.5998L17.9389 21.5103L17.8836 21.3998H17.76V21.5998ZM6.66 21.5998V21.3998H6.53639L6.48111 21.5103L6.66 21.5998ZM5.96002 22.9998L6.12642 23.1107L6.13333 23.1003L6.1389 23.0892L5.96002 22.9998ZM5.44003 23.1598L5.58145 23.0184L5.55242 22.9893L5.51429 22.9741L5.44003 23.1598ZM5.28005 22.6398L5.45155 22.7427L5.4555 22.7361L5.45893 22.7292L5.28005 22.6398ZM5.80003 21.5998L5.97892 21.6892L6.12363 21.3998H5.80003V21.5998ZM2.76 19.4798L2.56607 19.5287L2.56635 19.5298L2.76 19.4798ZM1.6807 15.1998L1.87463 15.1509L1.83653 14.9998H1.6807V15.1998ZM1.23872 12.7998V12.9998H1.4033L1.43498 12.8383L1.23872 12.7998ZM4.24003 11.4798L4.1506 11.6586L4.32947 11.7481L4.41891 11.5692L4.24003 11.4798ZM7.60003 11.1998L7.44638 11.3278L7.50635 11.3998H7.60003V11.1998ZM9.56133 12.7998L9.36507 12.8383L9.39674 12.9998H9.56133V12.7998ZM21.6 12.7998V12.9998H21.8V12.7998H21.6ZM16.4172 4.04196L16.2181 4.02324L16.2013 4.20184L16.377 4.23788L16.4172 4.04196ZM15.6137 4.0361L15.6509 4.23262L15.8018 4.20409L15.8132 4.05087L15.6137 4.0361ZM17.16 5.59981V5.79981H17.4375L17.3497 5.53657L17.16 5.59981ZM14.88 5.59981L14.6903 5.53657L14.6025 5.79981H14.88V5.59981ZM4.16002 12.4398L4.32642 12.3288L4.31544 12.3124L4.30145 12.2984L4.16002 12.4398ZM2.07998 12.7998L1.89025 12.7365L1.80248 12.9998H2.07998V12.7998ZM8.76 12.7998V12.9998H9.03748L8.94974 12.7366L8.76 12.7998ZM7.52002 11.9998V11.7998H7.49541L7.47154 11.8058L7.52002 11.9998ZM7.08 11.7998L6.90112 11.8892L6.90112 11.8892L7.08 11.7998ZM4.83998 12.2398L5.03424 12.2883L5.0361 12.279L4.83998 12.2398ZM4.56 12.5598L4.51151 12.3658H4.51151L4.56 12.5598ZM20.52 19.2798L20.7131 19.3325L20.7147 19.3256L20.52 19.2798ZM21.48 15.1998L21.6747 15.2456L21.7325 14.9998H21.48V15.1998ZM2.52 15.1998V14.9998H2.26262L2.3262 15.2492L2.52 15.1998ZM3.56002 19.2798L3.36619 19.3292L3.36706 19.3324L3.56002 19.2798ZM17.2 7.80019L17.4 7.80023V7.80019H17.2ZM17.2 9.6398V9.43981H17V9.6398H17.2ZM17.2 9.6398V9.8398H17.4V9.6398H17.2ZM22.8 12.5998H22.4V12.9998H22.8V12.5998ZM24.2 13.9998C24.2 13.2093 23.5905 12.5998 22.8 12.5998V12.9998C23.3696 12.9998 23.8 13.4303 23.8 13.9998H24.2ZM22.8 15.3998C23.5905 15.3998 24.2 14.7902 24.2 13.9998H23.8C23.8 14.5693 23.3696 14.9998 22.8 14.9998V15.3998ZM22.3294 15.3998H22.8V14.9998H22.3294V15.3998ZM21.4339 19.5687L22.5233 15.2487L22.1354 15.1509L21.0461 19.4709L21.4339 19.5687ZM18.626 21.7975C19.9524 21.7504 21.0989 20.8252 21.4332 19.5713L21.0468 19.4682C20.7577 20.5522 19.7623 21.3569 18.6118 21.3978L18.626 21.7975ZM19.2989 22.5103L18.7978 21.5082L18.4401 21.6871L18.9411 22.6892L19.2989 22.5103ZM19.0495 23.2986C19.1887 23.229 19.2785 23.0987 19.3207 22.965C19.3635 22.8295 19.3642 22.6718 19.3057 22.5255L18.9343 22.6741C18.9558 22.7277 18.9565 22.79 18.9393 22.8445C18.9215 22.9008 18.8912 22.9305 18.8705 22.9409L19.0495 23.2986ZM18.8 23.3998C18.8269 23.3998 18.9009 23.4028 18.9693 23.3755C19.0567 23.3405 19.1068 23.2734 19.1389 23.2092L18.7811 23.0304C18.7766 23.0393 18.777 23.0361 18.784 23.0287C18.7877 23.0247 18.793 23.02 18.7999 23.0153C18.8068 23.0105 18.8139 23.0068 18.8207 23.0041C18.8338 22.9989 18.8419 22.9988 18.8372 22.9992C18.835 22.9993 18.8313 22.9995 18.8247 22.9997C18.818 22.9998 18.8104 22.9998 18.8 22.9998V23.3998ZM18.2611 23.0492C18.313 23.1529 18.3839 23.2427 18.4791 23.3062C18.5755 23.3704 18.685 23.3998 18.8 23.3998V22.9998C18.755 22.9998 18.7246 22.9891 18.701 22.9734C18.6761 22.9568 18.647 22.9266 18.6189 22.8703L18.2611 23.0492ZM17.5811 21.6892L18.2611 23.0492L18.6189 22.8703L17.9389 21.5103L17.5811 21.6892ZM6.66 21.7998H17.76V21.3998H6.66V21.7998ZM6.1389 23.0892L6.83889 21.6892L6.48111 21.5103L5.78113 22.9103L6.1389 23.0892ZM5.60002 23.3998C5.8376 23.3998 6.01569 23.2768 6.12642 23.1107L5.79362 22.8888C5.74431 22.9627 5.6824 22.9998 5.60002 22.9998V23.3998ZM5.29861 23.3012C5.36295 23.3656 5.44331 23.3848 5.48716 23.3921C5.53562 23.4001 5.58118 23.3998 5.60002 23.3998V22.9998C5.58984 22.9998 5.58152 22.9998 5.57285 22.9994C5.56424 22.999 5.55764 22.9983 5.55289 22.9975C5.5478 22.9966 5.54809 22.9962 5.55198 22.9978C5.55586 22.9994 5.56799 23.0049 5.58145 23.0184L5.29861 23.3012ZM5.10854 22.5369C4.92926 22.8358 5.0442 23.2169 5.36577 23.3455L5.51429 22.9741C5.43593 22.9427 5.39084 22.8439 5.45155 22.7427L5.10854 22.5369ZM5.62114 21.5104L5.10116 22.5504L5.45893 22.7292L5.97892 21.6892L5.62114 21.5104ZM5.48002 21.7998H5.80003V21.3998H5.48002V21.7998ZM2.56635 19.5298C2.90881 20.8567 4.10741 21.7998 5.48002 21.7998V21.3998C4.29259 21.3998 3.25122 20.5828 2.95365 19.4298L2.56635 19.5298ZM1.48677 15.2487L2.56607 19.5287L2.95393 19.4309L1.87463 15.1509L1.48677 15.2487ZM1.2 15.3998H1.6807V14.9998H1.2V15.3998ZM-0.2 13.9998C-0.2 14.7902 0.409527 15.3998 1.2 15.3998V14.9998C0.630441 14.9998 0.2 14.5693 0.2 13.9998H-0.2ZM1.2 12.5998C0.409527 12.5998 -0.2 13.2093 -0.2 13.9998H0.2C0.2 13.4302 0.630441 12.9998 1.2 12.9998V12.5998ZM1.23872 12.5998H1.2V12.9998H1.23872V12.5998ZM3.20002 10.9998C2.12124 10.9998 1.2417 11.7454 1.04246 12.7613L1.43498 12.8383C1.59761 12.009 2.31351 11.3998 3.20002 11.3998V10.9998ZM4.32946 11.3009C3.99419 11.1333 3.60254 10.9998 3.20002 10.9998V11.3998C3.51749 11.3998 3.84584 11.5063 4.1506 11.6586L4.32946 11.3009ZM6.00005 10.1998C5.1632 10.1998 4.41454 10.6836 4.06115 11.3903L4.41891 11.5692C4.70555 10.996 5.31693 10.5998 6.00005 10.5998V10.1998ZM7.75368 11.0717C7.32362 10.5557 6.71075 10.1998 6.00005 10.1998V10.5998C6.56931 10.5998 7.07647 10.8839 7.44638 11.3278L7.75368 11.0717ZM9.75759 12.7613C9.55835 11.7454 8.67881 10.9998 7.60003 10.9998V11.3998C8.48654 11.3998 9.20243 12.009 9.36507 12.8383L9.75759 12.7613ZM21.6 12.5998H9.56133V12.9998H21.6V12.5998ZM21.4 4.39976V12.7998H21.8V4.39976H21.4ZM18.8 1.79977C20.2496 1.79977 21.4 2.95021 21.4 4.39976H21.8C21.8 2.7293 20.4705 1.39977 18.8 1.39977V1.79977ZM16.6163 4.06069C16.6731 3.45641 16.8821 2.8886 17.2418 2.47556C17.5972 2.06738 18.1081 1.79977 18.8 1.79977V1.39977C17.992 1.39977 17.3713 1.71773 16.9401 2.21288C16.5132 2.70317 16.2808 3.35645 16.2181 4.02324L16.6163 4.06069ZM18.2 5.99979C18.2 4.92773 17.4636 4.05242 16.4574 3.84604L16.377 4.23788C17.1982 4.40632 17.8 5.11876 17.8 5.99979H18.2ZM17.6 6.59977C17.7655 6.59977 17.9189 6.54376 18.0314 6.4312C18.144 6.31865 18.2 6.16523 18.2 5.99979H17.8C17.8 6.07434 17.776 6.12092 17.7486 6.14836C17.7211 6.1758 17.6746 6.19977 17.6 6.19977V6.59977ZM14.4 6.59977H17.6V6.19977H14.4V6.59977ZM13.8 5.99979C13.8 6.16523 13.856 6.31865 13.9686 6.4312C14.0811 6.54376 14.2346 6.59977 14.4 6.59977V6.19977C14.3254 6.19977 14.2789 6.1758 14.2514 6.14836C14.224 6.12092 14.2 6.07434 14.2 5.99979H13.8ZM15.5766 3.83958C14.5532 4.03302 13.8 4.91565 13.8 5.99979H14.2C14.2 5.10899 14.8153 4.39056 15.6509 4.23262L15.5766 3.83958ZM18.8 0.599805C16.9082 0.599805 15.5632 2.01082 15.4143 4.02133L15.8132 4.05087C15.9492 2.21436 17.1509 0.999805 18.8 0.999805V0.599805ZM22.6 4.3998C22.6 2.28933 20.9105 0.599805 18.8 0.599805V0.999805C20.6896 0.999805 22.2 2.51025 22.2 4.3998H22.6ZM22.6 12.7998V4.3998H22.2V12.7998H22.6ZM17.16 5.39981H14.88V5.79981H17.16V5.39981ZM16.04 4.99979C16.4746 4.99979 16.8377 5.26529 16.9703 5.66305L17.3497 5.53657C17.1623 4.97432 16.6455 4.59979 16.04 4.59979V4.99979ZM15.0697 5.66305C15.1999 5.27248 15.5976 4.99979 16.04 4.99979V4.59979C15.4424 4.59979 14.8801 4.96713 14.6903 5.53657L15.0697 5.66305ZM3.20002 12.1998C3.49454 12.1998 3.76629 12.3289 4.01858 12.5812L4.30145 12.2984C3.99377 11.9907 3.6255 11.7998 3.20002 11.7998V12.1998ZM2.26972 12.8631C2.40233 12.4653 2.76547 12.1998 3.20002 12.1998V11.7998C2.5945 11.7998 2.0777 12.1743 1.89025 12.7365L2.26972 12.8631ZM8.76 12.5998H2.07998V12.9998H8.76V12.5998ZM7.64002 12.1998C8.07452 12.1998 8.43769 12.4653 8.57026 12.863L8.94974 12.7366C8.76234 12.1743 8.24548 11.7998 7.64002 11.7998V12.1998ZM7.52002 12.1998H7.64002V11.7998H7.52002V12.1998ZM6.90112 11.8892C7.02588 12.1387 7.32379 12.255 7.5685 12.1938L7.47154 11.8058C7.39618 11.8246 7.29415 11.7808 7.25887 11.7103L6.90112 11.8892ZM6.03998 11.3998C6.41935 11.3998 6.74125 11.5695 6.90112 11.8892L7.25888 11.7103C7.01872 11.2301 6.54065 10.9998 6.03998 10.9998V11.3998ZM5.0361 12.279C5.13986 11.7602 5.54729 11.3998 6.03998 11.3998V10.9998C5.33267 10.9998 4.78011 11.5193 4.64387 12.2006L5.0361 12.279ZM4.60849 12.7538C4.86767 12.6891 4.98425 12.4875 5.03402 12.2883L4.64595 12.1913C4.61575 12.3122 4.57229 12.3506 4.51151 12.3658L4.60849 12.7538ZM3.99362 12.5508C4.13584 12.7641 4.397 12.8067 4.60849 12.7538L4.51151 12.3658C4.40303 12.3929 4.34422 12.3556 4.32642 12.3288L3.99362 12.5508ZM20.327 19.2272C20.1097 20.024 19.3859 20.5998 18.56 20.5998V20.9998C19.5741 20.9998 20.4503 20.2956 20.713 19.3324L20.327 19.2272ZM21.2853 15.154L20.3253 19.234L20.7147 19.3256L21.6747 15.2456L21.2853 15.154ZM2.52 15.3998H21.48V14.9998H2.52V15.3998ZM3.75382 19.2304L2.7138 15.1504L2.3262 15.2492L3.36621 19.3292L3.75382 19.2304ZM5.52 20.5998C4.6941 20.5998 3.97029 20.024 3.75297 19.2272L3.36706 19.3324C3.62974 20.2956 4.50587 20.9998 5.52 20.9998V20.5998ZM18.56 20.5998H5.52V20.9998H18.56V20.5998ZM22.8 14.1998H22V14.5998H22.8V14.1998ZM23 13.9998C23 14.0744 22.976 14.1209 22.9486 14.1484C22.9211 14.1758 22.8746 14.1998 22.8 14.1998V14.5998C22.9654 14.5998 23.1189 14.5438 23.2314 14.4312C23.344 14.3187 23.4 14.1653 23.4 13.9998H23ZM22.8 13.7998C22.8746 13.7998 22.9211 13.8238 22.9486 13.8512C22.976 13.8787 23 13.9253 23 13.9998H23.4C23.4 13.8344 23.344 13.6809 23.2314 13.5684C23.1189 13.4558 22.9654 13.3998 22.8 13.3998V13.7998ZM9.19997 13.7998H22.8V13.3998H9.19997V13.7998ZM1.59998 13.7998H9.19997V13.3998H1.59998V13.7998ZM1.2 13.7998H1.59998V13.3998H1.2V13.7998ZM1.00002 13.9998C1.00002 13.9253 1.02399 13.8787 1.05143 13.8512C1.07887 13.8238 1.12544 13.7998 1.2 13.7998V13.3998C1.03456 13.3998 0.881142 13.4558 0.768587 13.5684C0.656031 13.6809 0.600016 13.8344 0.600016 13.9998H1.00002ZM1.2 14.1998C1.12545 14.1998 1.07887 14.1758 1.05143 14.1484C1.02399 14.1209 1.00002 14.0744 1.00002 13.9998H0.600016C0.600016 14.1653 0.656031 14.3187 0.768586 14.4312C0.881141 14.5438 1.03455 14.5998 1.2 14.5998V14.1998ZM2.00002 14.1998H1.2V14.5998H2.00002V14.1998ZM22 14.1998H2.00002V14.5998H22V14.1998ZM14.4 8.40018C14.5654 8.40018 14.7188 8.34416 14.8314 8.23161C14.944 8.11905 15 7.96564 15 7.80019H14.6C14.6 7.87475 14.576 7.92133 14.5486 7.94877C14.5211 7.9762 14.4745 8.00018 14.4 8.00018V8.40018ZM13.8 7.80019C13.8 7.96564 13.856 8.11905 13.9686 8.23161C14.0811 8.34416 14.2345 8.40018 14.4 8.40018V8.00018C14.3254 8.00018 14.2789 7.9762 14.2514 7.94877C14.224 7.92133 14.2 7.87475 14.2 7.80019H13.8ZM13.8 7.60018V7.80019H14.2V7.60018H13.8ZM14.4 7.0002C14.2345 7.0002 14.0811 7.05621 13.9686 7.16877C13.856 7.28132 13.8 7.43473 13.8 7.60018H14.2C14.2 7.52562 14.224 7.47905 14.2514 7.45161C14.2789 7.42417 14.3254 7.4002 14.4 7.4002V7.0002ZM15 7.60018C15 7.43473 14.944 7.28132 14.8314 7.16877C14.7188 7.05621 14.5654 7.0002 14.4 7.0002V7.4002C14.4745 7.4002 14.5211 7.42417 14.5486 7.45161C14.576 7.47905 14.6 7.52562 14.6 7.60018H15ZM15 7.80019V7.60018H14.6V7.80019H15ZM14.6 9.6398C14.6 9.74255 14.5167 9.83979 14.4 9.83979V10.2398C14.7632 10.2398 15 9.937 15 9.6398H14.6ZM14.6 9.19979V9.6398H15V9.19979H14.6ZM14.4 8.9998C14.4745 8.9998 14.5211 9.02378 14.5486 9.05122C14.576 9.07866 14.6 9.12523 14.6 9.19979H15C15 9.03434 14.944 8.88093 14.8314 8.76838C14.7188 8.65582 14.5654 8.5998 14.4 8.5998V8.9998ZM14.2 9.19979C14.2 9.12523 14.224 9.07866 14.2514 9.05122C14.2789 9.02378 14.3254 8.9998 14.4 8.9998V8.5998C14.2345 8.5998 14.0811 8.65582 13.9686 8.76838C13.856 8.88093 13.8 9.03434 13.8 9.19979H14.2ZM14.2 9.6398V9.19979H13.8V9.6398H14.2ZM14.4 9.83979C14.3254 9.83979 14.2789 9.81581 14.2514 9.78836C14.224 9.76091 14.2 9.71433 14.2 9.6398H13.8C13.8 9.80523 13.856 9.95864 13.9686 10.0712C14.0811 10.1838 14.2345 10.2398 14.4 10.2398V9.83979ZM14.4 11.8001C14.5654 11.8001 14.7188 11.7441 14.8314 11.6315C14.944 11.519 15 11.3655 15 11.2001H14.6C14.6 11.2747 14.576 11.3212 14.5486 11.3487C14.5211 11.3761 14.4745 11.4001 14.4 11.4001V11.8001ZM13.8 11.2001C13.8 11.3655 13.856 11.5189 13.9686 11.6315C14.0811 11.744 14.2345 11.8001 14.4 11.8001V11.4001C14.3254 11.4001 14.2789 11.3761 14.2514 11.3487C14.224 11.3212 14.2 11.2746 14.2 11.2001H13.8ZM13.8 11.0001V11.2001H14.2V11.0001H13.8ZM14.4 10.4001C14.2345 10.4001 14.0811 10.4561 13.9686 10.5687C13.856 10.6812 13.8 10.8346 13.8 11.0001H14.2C14.2 10.9255 14.224 10.8789 14.2514 10.8515C14.2789 10.8241 14.3254 10.8001 14.4 10.8001V10.4001ZM15 11.0001C15 10.8346 14.944 10.6812 14.8314 10.5687C14.7188 10.4561 14.5654 10.4001 14.4 10.4001V10.8001C14.4745 10.8001 14.5211 10.8241 14.5486 10.8515C14.576 10.8789 14.6 10.9255 14.6 11.0001H15ZM15 11.2001V11.0001H14.6V11.2001H15ZM16.2 7.80019C16.2 7.87475 16.176 7.92133 16.1486 7.94877C16.1211 7.9762 16.0745 8.00018 16 8.00018V8.40018C16.1654 8.40018 16.3188 8.34416 16.4314 8.23161C16.544 8.11905 16.6 7.96564 16.6 7.80019H16.2ZM16.2 7.60018V7.80019H16.6V7.60018H16.2ZM16 7.4002C16.0745 7.4002 16.1211 7.42417 16.1486 7.45161C16.176 7.47905 16.2 7.52562 16.2 7.60018H16.6C16.6 7.43474 16.544 7.28132 16.4314 7.16877C16.3188 7.05621 16.1654 7.0002 16 7.0002V7.4002ZM15.8 7.60018C15.8 7.52562 15.824 7.47905 15.8514 7.45161C15.8789 7.42417 15.9254 7.4002 16 7.4002V7.0002C15.8345 7.0002 15.6811 7.05621 15.5686 7.16877C15.456 7.28132 15.4 7.43473 15.4 7.60018H15.8ZM15.8 7.80019V7.60018H15.4V7.80019H15.8ZM16 8.00018C15.9254 8.00018 15.8789 7.9762 15.8514 7.94877C15.824 7.92133 15.8 7.87475 15.8 7.80019H15.4C15.4 7.96564 15.456 8.11905 15.5686 8.23161C15.6811 8.34416 15.8345 8.40018 16 8.40018V8.00018ZM15.4 9.6398C15.4 9.80525 15.456 9.95866 15.5686 10.0712C15.6811 10.1838 15.8345 10.2398 16 10.2398V9.83979C15.9254 9.83979 15.8789 9.81581 15.8514 9.78837C15.824 9.76094 15.8 9.71436 15.8 9.6398H15.4ZM15.4 9.19979V9.6398H15.8V9.19979H15.4ZM16 8.5998C15.8345 8.5998 15.6811 8.65582 15.5686 8.76838C15.456 8.88093 15.4 9.03434 15.4 9.19979H15.8C15.8 9.12523 15.824 9.07866 15.8514 9.05122C15.8789 9.02378 15.9254 8.9998 16 8.9998V8.5998ZM16.6 9.19979C16.6 9.03434 16.544 8.88093 16.4314 8.76838C16.3188 8.65582 16.1654 8.5998 16 8.5998V8.9998C16.0745 8.9998 16.1211 9.02378 16.1486 9.05122C16.176 9.07866 16.2 9.12523 16.2 9.19979H16.6ZM16.6 9.6398V9.19979H16.2V9.6398H16.6ZM16 10.2398C16.3632 10.2398 16.6 9.937 16.6 9.6398H16.2C16.2 9.74255 16.1168 9.83979 16 9.83979V10.2398ZM16 11.4001C15.9254 11.4001 15.8789 11.3761 15.8514 11.3487C15.824 11.3212 15.8 11.2747 15.8 11.2001H15.4C15.4 11.3655 15.456 11.519 15.5686 11.6315C15.6811 11.7441 15.8345 11.8001 16 11.8001V11.4001ZM16.2 11.2001C16.2 11.2747 16.176 11.3212 16.1486 11.3487C16.1211 11.3761 16.0745 11.4001 16 11.4001V11.8001C16.1654 11.8001 16.3188 11.7441 16.4314 11.6315C16.544 11.519 16.6 11.3655 16.6 11.2001H16.2ZM16.2 11.0001V11.2001H16.6V11.0001H16.2ZM16 10.8001C16.0745 10.8001 16.1211 10.8241 16.1486 10.8515C16.176 10.8789 16.2 10.9255 16.2 11.0001H16.6C16.6 10.8346 16.544 10.6812 16.4314 10.5687C16.3188 10.4561 16.1654 10.4001 16 10.4001V10.8001ZM15.8 11.0001C15.8 10.9255 15.824 10.8789 15.8514 10.8515C15.8789 10.8241 15.9254 10.8001 16 10.8001V10.4001C15.8345 10.4001 15.6811 10.4561 15.5686 10.5687C15.456 10.6812 15.4 10.8346 15.4 11.0001H15.8ZM15.8 11.2001V11.0001H15.4V11.2001H15.8ZM17.6 8.40018C17.7655 8.40018 17.9189 8.34416 18.0314 8.23161C18.144 8.11905 18.2 7.96564 18.2 7.80019H17.8C17.8 7.87475 17.776 7.92133 17.7486 7.94877C17.7212 7.9762 17.6746 8.00018 17.6 8.00018V8.40018ZM17 7.80016C17 7.96563 17.056 8.11906 17.1686 8.23161C17.2812 8.34417 17.4346 8.40018 17.6 8.40018V8.00018C17.5255 8.00018 17.4789 7.9762 17.4514 7.94876C17.424 7.92133 17.4 7.87476 17.4 7.80023L17 7.80016ZM17 7.60018V7.80019H17.4V7.60018H17ZM17.6 7.0002C17.4346 7.0002 17.2812 7.05621 17.1686 7.16877C17.0561 7.28132 17 7.43473 17 7.60018H17.4C17.4 7.52562 17.424 7.47905 17.4515 7.45161C17.4789 7.42417 17.5255 7.4002 17.6 7.4002V7.0002ZM18.2 7.60018C18.2 7.43474 18.144 7.28132 18.0314 7.16877C17.9189 7.05621 17.7655 7.0002 17.6 7.0002V7.4002C17.6746 7.4002 17.7212 7.42417 17.7486 7.45161C17.776 7.47905 17.8 7.52562 17.8 7.60018H18.2ZM18.2 7.80019V7.60018H17.8V7.80019H18.2ZM17.6 9.83979C17.5254 9.83979 17.4788 9.81581 17.4514 9.78838C17.424 9.76094 17.4 9.71436 17.4 9.6398H17C17 9.80525 17.056 9.95866 17.1686 10.0712C17.2811 10.1838 17.4345 10.2398 17.6 10.2398V9.83979ZM17.8 9.6398C17.8 9.74255 17.7168 9.83979 17.6 9.83979V10.2398C17.9632 10.2398 18.2 9.93709 18.2 9.6398H17.8ZM17.8 9.19979V9.6398H18.2V9.19979H17.8ZM17.6 8.9998C17.6746 8.9998 17.7211 9.02378 17.7486 9.05122C17.776 9.07866 17.8 9.12523 17.8 9.19979H18.2C18.2 9.03434 18.144 8.88093 18.0314 8.76838C17.9189 8.65582 17.7655 8.5998 17.6 8.5998V8.9998ZM17.4 9.19979C17.4 9.12523 17.424 9.07866 17.4514 9.05122C17.4789 9.02378 17.5255 8.9998 17.6 8.9998V8.5998C17.4346 8.5998 17.2812 8.65582 17.1686 8.76838C17.056 8.88093 17 9.03434 17 9.19979H17.4ZM17.4 9.6398V9.19979H17V9.6398H17.4ZM17.2 9.8398H17.2V9.43981H17.2V9.8398ZM17 11.2001C17 11.3655 17.056 11.519 17.1686 11.6315C17.2811 11.7441 17.4345 11.8001 17.6 11.8001V11.4001C17.5254 11.4001 17.4788 11.3761 17.4514 11.3487C17.424 11.3212 17.4 11.2747 17.4 11.2001H17ZM17 11.0001V11.2001H17.4V11.0001H17ZM17.6 10.4001C17.4345 10.4001 17.2811 10.4561 17.1686 10.5687C17.056 10.6812 17 10.8346 17 11.0001H17.4C17.4 10.9255 17.424 10.8789 17.4514 10.8515C17.4788 10.8241 17.5254 10.8001 17.6 10.8001V10.4001ZM18.2 11.0001C18.2 10.8346 18.1439 10.6812 18.0314 10.5687C17.9188 10.4561 17.7654 10.4001 17.6 10.4001V10.8001C17.6745 10.8001 17.7211 10.8241 17.7485 10.8515C17.776 10.8789 17.7999 10.9255 17.7999 11.0001H18.2ZM18.2 11.2001V11.0001H17.7999V11.2001H18.2ZM17.6 11.8001C17.7654 11.8001 17.9188 11.7441 18.0314 11.6315C18.1439 11.519 18.2 11.3655 18.2 11.2001H17.7999C17.7999 11.2747 17.776 11.3212 17.7485 11.3487C17.7211 11.3761 17.6745 11.4001 17.6 11.4001V11.8001Z" fill="#0D1117" mask="url(#path-1-outside-1_2683_10118)"/>
</g>
<path d="M34.448 14.816H39.726V16.818C39.726 17.042 40.006 17 40.174 17C40.272 17 40.356 16.916 40.356 16.818V14.802H41.42C41.518 14.802 41.602 14.718 41.602 14.62V14.438C41.602 14.34 41.518 14.27 41.42 14.27H40.356C40.356 12.002 40.342 9.734 40.342 7.466C40.342 7.34 40.286 7.312 40.188 7.312H39.936L34.21 14.368V14.606C34.21 14.76 34.308 14.816 34.448 14.816ZM34.994 14.256L39.754 8.432V14.256H34.994Z" fill="#0D1117"/>
<defs>
<clipPath id="clip0_2683_10118">
<rect width="24" height="24" fill="white"/>
</clipPath>
</defs>
</svg>
