<svg width="42" height="24" viewBox="0 0 42 24" fill="none" xmlns="http://www.w3.org/2000/svg">
<mask id="path-1-outside-1_2683_10114" maskUnits="userSpaceOnUse" x="-0.625" y="2.75" width="25" height="18" fill="black">
<rect fill="white" x="-0.625" y="2.75" width="25" height="18"/>
<path d="M23.25 16.125H22.875V13.125C22.8745 12.7273 22.7163 12.3461 22.4351 12.0649C22.1539 11.7837 21.7727 11.6255 21.375 11.625V5.25C21.3745 4.85234 21.2163 4.47111 20.9351 4.18992C20.6539 3.90872 20.2727 3.75052 19.875 3.75H4.125C3.72734 3.75052 3.34611 3.90872 3.06492 4.18992C2.78372 4.47111 2.62552 4.85234 2.625 5.25V11.625C2.22734 11.6255 1.84611 11.7837 1.56492 12.0649C1.28372 12.3461 1.12552 12.7273 1.125 13.125V16.125H0.75C0.650544 16.125 0.555161 16.1645 0.484835 16.2348C0.414509 16.3052 0.375 16.4005 0.375 16.5V18C0.375 18.0995 0.414509 18.1948 0.484835 18.2652C0.555161 18.3355 0.650544 18.375 0.75 18.375H1.125V19.875C1.125 19.9745 1.16451 20.0698 1.23483 20.1402C1.30516 20.2105 1.40054 20.25 1.5 20.25H2.625C2.71167 20.25 2.79567 20.22 2.86269 20.1651C2.9297 20.1101 2.97558 20.0336 2.9925 19.9486L3.3075 18.375H20.6925L21.0075 19.9486C21.0244 20.0336 21.0703 20.1101 21.1373 20.1651C21.2043 20.22 21.2883 20.25 21.375 20.25H22.5C22.5995 20.25 22.6948 20.2105 22.7652 20.1402C22.8355 20.0698 22.875 19.9745 22.875 19.875V18.375H23.25C23.3495 18.375 23.4448 18.3355 23.5152 18.2652C23.5855 18.1948 23.625 18.0995 23.625 18V16.5C23.625 16.4005 23.5855 16.3052 23.5152 16.2348C23.4448 16.1645 23.3495 16.125 23.25 16.125ZM3.375 5.25C3.37526 5.05117 3.45436 4.86055 3.59496 4.71996C3.73555 4.57936 3.92617 4.50026 4.125 4.5H19.875C20.0738 4.50026 20.2644 4.57936 20.405 4.71996C20.5456 4.86055 20.6247 5.05117 20.625 5.25V11.625H19.875V10.125C19.8745 9.72733 19.7163 9.34611 19.4351 9.06492C19.1539 8.78372 18.7727 8.62552 18.375 8.625H13.875C13.4773 8.62552 13.0961 8.78372 12.8149 9.06492C12.5337 9.34611 12.3755 9.72733 12.375 10.125V11.625H11.625V10.125C11.6245 9.72733 11.4663 9.34611 11.1851 9.06492C10.9039 8.78372 10.5227 8.62552 10.125 8.625H5.625C5.22733 8.62552 4.84611 8.78372 4.56492 9.06492C4.28372 9.34611 4.12552 9.72733 4.125 10.125V11.625H3.375V5.25ZM19.125 10.125V11.625H13.125V10.125C13.1253 9.92617 13.2044 9.73555 13.345 9.59496C13.4856 9.45436 13.6762 9.37526 13.875 9.375H18.375C18.5738 9.37526 18.7644 9.45436 18.905 9.59496C19.0456 9.73555 19.1247 9.92617 19.125 10.125ZM10.875 10.125V11.625H4.875V10.125C4.87526 9.92617 4.95436 9.73555 5.09496 9.59496C5.23555 9.45436 5.42617 9.37526 5.625 9.375H10.125C10.3238 9.37526 10.5144 9.45436 10.655 9.59496C10.7956 9.73555 10.8747 9.92617 10.875 10.125ZM1.875 13.125C1.87526 12.9262 1.95436 12.7356 2.09496 12.595C2.23555 12.4544 2.42617 12.3753 2.625 12.375H21.375C21.5738 12.3753 21.7644 12.4544 21.905 12.595C22.0456 12.7356 22.1247 12.9262 22.125 13.125V16.125H1.875V13.125ZM2.3175 19.5H1.875V18.375H2.5425L2.3175 19.5ZM22.125 19.5H21.6825L21.4575 18.375H22.125V19.5ZM22.875 17.625H1.125V16.875H22.875V17.625Z"/>
</mask>
<path d="M23.25 16.125H22.875V13.125C22.8745 12.7273 22.7163 12.3461 22.4351 12.0649C22.1539 11.7837 21.7727 11.6255 21.375 11.625V5.25C21.3745 4.85234 21.2163 4.47111 20.9351 4.18992C20.6539 3.90872 20.2727 3.75052 19.875 3.75H4.125C3.72734 3.75052 3.34611 3.90872 3.06492 4.18992C2.78372 4.47111 2.62552 4.85234 2.625 5.25V11.625C2.22734 11.6255 1.84611 11.7837 1.56492 12.0649C1.28372 12.3461 1.12552 12.7273 1.125 13.125V16.125H0.75C0.650544 16.125 0.555161 16.1645 0.484835 16.2348C0.414509 16.3052 0.375 16.4005 0.375 16.5V18C0.375 18.0995 0.414509 18.1948 0.484835 18.2652C0.555161 18.3355 0.650544 18.375 0.75 18.375H1.125V19.875C1.125 19.9745 1.16451 20.0698 1.23483 20.1402C1.30516 20.2105 1.40054 20.25 1.5 20.25H2.625C2.71167 20.25 2.79567 20.22 2.86269 20.1651C2.9297 20.1101 2.97558 20.0336 2.9925 19.9486L3.3075 18.375H20.6925L21.0075 19.9486C21.0244 20.0336 21.0703 20.1101 21.1373 20.1651C21.2043 20.22 21.2883 20.25 21.375 20.25H22.5C22.5995 20.25 22.6948 20.2105 22.7652 20.1402C22.8355 20.0698 22.875 19.9745 22.875 19.875V18.375H23.25C23.3495 18.375 23.4448 18.3355 23.5152 18.2652C23.5855 18.1948 23.625 18.0995 23.625 18V16.5C23.625 16.4005 23.5855 16.3052 23.5152 16.2348C23.4448 16.1645 23.3495 16.125 23.25 16.125ZM3.375 5.25C3.37526 5.05117 3.45436 4.86055 3.59496 4.71996C3.73555 4.57936 3.92617 4.50026 4.125 4.5H19.875C20.0738 4.50026 20.2644 4.57936 20.405 4.71996C20.5456 4.86055 20.6247 5.05117 20.625 5.25V11.625H19.875V10.125C19.8745 9.72733 19.7163 9.34611 19.4351 9.06492C19.1539 8.78372 18.7727 8.62552 18.375 8.625H13.875C13.4773 8.62552 13.0961 8.78372 12.8149 9.06492C12.5337 9.34611 12.3755 9.72733 12.375 10.125V11.625H11.625V10.125C11.6245 9.72733 11.4663 9.34611 11.1851 9.06492C10.9039 8.78372 10.5227 8.62552 10.125 8.625H5.625C5.22733 8.62552 4.84611 8.78372 4.56492 9.06492C4.28372 9.34611 4.12552 9.72733 4.125 10.125V11.625H3.375V5.25ZM19.125 10.125V11.625H13.125V10.125C13.1253 9.92617 13.2044 9.73555 13.345 9.59496C13.4856 9.45436 13.6762 9.37526 13.875 9.375H18.375C18.5738 9.37526 18.7644 9.45436 18.905 9.59496C19.0456 9.73555 19.1247 9.92617 19.125 10.125ZM10.875 10.125V11.625H4.875V10.125C4.87526 9.92617 4.95436 9.73555 5.09496 9.59496C5.23555 9.45436 5.42617 9.37526 5.625 9.375H10.125C10.3238 9.37526 10.5144 9.45436 10.655 9.59496C10.7956 9.73555 10.8747 9.92617 10.875 10.125ZM1.875 13.125C1.87526 12.9262 1.95436 12.7356 2.09496 12.595C2.23555 12.4544 2.42617 12.3753 2.625 12.375H21.375C21.5738 12.3753 21.7644 12.4544 21.905 12.595C22.0456 12.7356 22.1247 12.9262 22.125 13.125V16.125H1.875V13.125ZM2.3175 19.5H1.875V18.375H2.5425L2.3175 19.5ZM22.125 19.5H21.6825L21.4575 18.375H22.125V19.5ZM22.875 17.625H1.125V16.875H22.875V17.625Z" fill="#0D1117"/>
<path d="M23.25 16.125H22.875V13.125C22.8745 12.7273 22.7163 12.3461 22.4351 12.0649C22.1539 11.7837 21.7727 11.6255 21.375 11.625V5.25C21.3745 4.85234 21.2163 4.47111 20.9351 4.18992C20.6539 3.90872 20.2727 3.75052 19.875 3.75H4.125C3.72734 3.75052 3.34611 3.90872 3.06492 4.18992C2.78372 4.47111 2.62552 4.85234 2.625 5.25V11.625C2.22734 11.6255 1.84611 11.7837 1.56492 12.0649C1.28372 12.3461 1.12552 12.7273 1.125 13.125V16.125H0.75C0.650544 16.125 0.555161 16.1645 0.484835 16.2348C0.414509 16.3052 0.375 16.4005 0.375 16.5V18C0.375 18.0995 0.414509 18.1948 0.484835 18.2652C0.555161 18.3355 0.650544 18.375 0.75 18.375H1.125V19.875C1.125 19.9745 1.16451 20.0698 1.23483 20.1402C1.30516 20.2105 1.40054 20.25 1.5 20.25H2.625C2.71167 20.25 2.79567 20.22 2.86269 20.1651C2.9297 20.1101 2.97558 20.0336 2.9925 19.9486L3.3075 18.375H20.6925L21.0075 19.9486C21.0244 20.0336 21.0703 20.1101 21.1373 20.1651C21.2043 20.22 21.2883 20.25 21.375 20.25H22.5C22.5995 20.25 22.6948 20.2105 22.7652 20.1402C22.8355 20.0698 22.875 19.9745 22.875 19.875V18.375H23.25C23.3495 18.375 23.4448 18.3355 23.5152 18.2652C23.5855 18.1948 23.625 18.0995 23.625 18V16.5C23.625 16.4005 23.5855 16.3052 23.5152 16.2348C23.4448 16.1645 23.3495 16.125 23.25 16.125ZM3.375 5.25C3.37526 5.05117 3.45436 4.86055 3.59496 4.71996C3.73555 4.57936 3.92617 4.50026 4.125 4.5H19.875C20.0738 4.50026 20.2644 4.57936 20.405 4.71996C20.5456 4.86055 20.6247 5.05117 20.625 5.25V11.625H19.875V10.125C19.8745 9.72733 19.7163 9.34611 19.4351 9.06492C19.1539 8.78372 18.7727 8.62552 18.375 8.625H13.875C13.4773 8.62552 13.0961 8.78372 12.8149 9.06492C12.5337 9.34611 12.3755 9.72733 12.375 10.125V11.625H11.625V10.125C11.6245 9.72733 11.4663 9.34611 11.1851 9.06492C10.9039 8.78372 10.5227 8.62552 10.125 8.625H5.625C5.22733 8.62552 4.84611 8.78372 4.56492 9.06492C4.28372 9.34611 4.12552 9.72733 4.125 10.125V11.625H3.375V5.25ZM19.125 10.125V11.625H13.125V10.125C13.1253 9.92617 13.2044 9.73555 13.345 9.59496C13.4856 9.45436 13.6762 9.37526 13.875 9.375H18.375C18.5738 9.37526 18.7644 9.45436 18.905 9.59496C19.0456 9.73555 19.1247 9.92617 19.125 10.125ZM10.875 10.125V11.625H4.875V10.125C4.87526 9.92617 4.95436 9.73555 5.09496 9.59496C5.23555 9.45436 5.42617 9.37526 5.625 9.375H10.125C10.3238 9.37526 10.5144 9.45436 10.655 9.59496C10.7956 9.73555 10.8747 9.92617 10.875 10.125ZM1.875 13.125C1.87526 12.9262 1.95436 12.7356 2.09496 12.595C2.23555 12.4544 2.42617 12.3753 2.625 12.375H21.375C21.5738 12.3753 21.7644 12.4544 21.905 12.595C22.0456 12.7356 22.1247 12.9262 22.125 13.125V16.125H1.875V13.125ZM2.3175 19.5H1.875V18.375H2.5425L2.3175 19.5ZM22.125 19.5H21.6825L21.4575 18.375H22.125V19.5ZM22.875 17.625H1.125V16.875H22.875V17.625Z" stroke="#0D1117" stroke-width="0.6" mask="url(#path-1-outside-1_2683_10114)"/>
<path d="M34.728 15.894C35.036 16.244 35.834 17.14 37.556 17.14C39.502 17.14 40.72 15.978 40.72 14.438C40.72 13.318 39.796 12.38 38.886 12.1C38.886 12.086 38.886 12.086 38.886 12.072C39.67 11.778 40.468 10.91 40.468 9.818C40.468 8.334 39.292 7.326 37.682 7.326C36.002 7.326 35.022 8.572 35.022 8.572C34.952 8.642 34.952 8.754 35.036 8.81L35.246 8.978C35.33 9.048 35.428 9.02 35.484 8.95C35.638 8.768 36.352 7.914 37.682 7.914C38.872 7.914 39.81 8.712 39.81 9.888C39.81 11.302 38.564 11.834 37.542 11.834H36.254C36.114 11.834 36.058 11.89 36.058 12.002V12.254C36.058 12.394 36.1 12.436 36.24 12.436H37.542C38.774 12.436 40.062 13.122 40.062 14.48C40.062 15.754 39.026 16.58 37.584 16.58C36.072 16.58 35.526 15.824 35.204 15.516C35.12 15.432 35.05 15.39 34.952 15.474L34.728 15.656C34.658 15.712 34.658 15.81 34.728 15.894Z" fill="#0D1117"/>
</svg>
