<svg width="181" height="116" viewBox="0 0 181 116" fill="none" xmlns="http://www.w3.org/2000/svg">
<path d="M113.08 79.76C111.12 78.28 109.24 77.28 107.48 76.68C105.72 76.08 103.64 75.76 101.24 75.76C96.96 75.8 93.48 77.16 90.88 79.8C88.28 82.44 87 85.88 87 90.08C87 94.36 88.32 97.8 90.96 100.48C93.6 103.16 97.12 104.44 101.52 104.4C104.48 104.36 107.16 103.28 109.52 101.12C111.88 98.92 113.32 96.48 113.76 93.8L113.32 93.64C112.8 96.48 111.32 98.92 108.88 100.88C106.44 102.84 103.76 103.8 100.84 103.8C97.04 103.8 94.16 102.16 92.56 99.48C90.96 96.76 90.2 93.64 90.2 90C90.2 86.36 91 83.24 92.64 80.56C94.28 77.84 97.28 76.16 101.24 76.16C103.8 76.16 106.56 77.04 108.84 78.68C111.12 80.28 112.8 83.08 112.84 86.32H113.08V79.76ZM119.006 77.24C116.606 77.08 116.606 80.8 119.006 80.72C120.006 80.72 120.886 79.92 120.886 78.96C120.886 78.04 120.006 77.24 119.006 77.24ZM117.726 86.72C117.926 87.2 118.086 87.8 118.206 88.72C118.326 89.64 118.366 90.24 118.366 91.64V95.4V97.52C118.366 100.44 118.166 102.24 117.766 103C117.486 103.52 116.966 103.88 116.286 104H122.766C122.046 103.84 121.566 103.52 121.326 103.04C121.006 102.44 120.846 100.76 120.846 98.04L120.886 92.48L120.846 84.96C119.526 84.96 117.766 85.08 115.526 85.28C116.526 85.48 117.246 85.96 117.726 86.72ZM123.891 85.64H127.611V100.84C127.611 103.2 128.491 104.4 130.291 104.4C131.251 104.4 131.691 104.32 132.651 103.96C133.651 103.6 134.611 102.52 135.451 100.88L135.131 100.6C134.971 101.28 134.531 101.88 133.811 102.48C133.091 103.08 132.411 103.36 131.731 103.36C130.651 103.36 130.091 102.6 130.091 101.04V85.64H135.451V85.04H130.091V78.8H129.531L129.331 80.68C129.291 81.08 129.131 81.64 128.891 82.32C128.691 83 128.371 83.48 128.011 83.84C127.251 84.48 125.851 85.2 123.891 85.24V85.64ZM140.168 77.24C137.768 77.08 137.768 80.8 140.168 80.72C141.168 80.72 142.048 79.92 142.048 78.96C142.048 78.04 141.168 77.24 140.168 77.24ZM138.888 86.72C139.088 87.2 139.248 87.8 139.368 88.72C139.488 89.64 139.528 90.24 139.528 91.64V95.4V97.52C139.528 100.44 139.328 102.24 138.928 103C138.648 103.52 138.128 103.88 137.448 104H143.928C143.208 103.84 142.728 103.52 142.488 103.04C142.168 102.44 142.008 100.76 142.008 98.04L142.048 92.48L142.008 84.96C140.688 84.96 138.928 85.08 136.688 85.28C137.688 85.48 138.408 85.96 138.888 86.72ZM155.092 85.36C157.212 85.36 158.892 86.72 159.692 88.64C160.532 90.56 160.972 92.36 161.012 94.08H148.932C149.132 92.28 149.532 90.52 150.452 88.6C151.372 86.68 153.012 85.36 155.092 85.36ZM163.692 94.48C163.652 91.88 162.812 89.68 161.252 87.8C159.692 85.92 157.572 84.96 154.892 84.96C152.012 84.96 149.812 85.92 148.252 87.88C146.732 89.84 145.972 92.16 145.972 94.92C145.972 97.56 146.812 99.8 148.532 101.64C150.252 103.48 152.532 104.4 155.372 104.4C158.732 104.4 162.092 102.56 163.412 99.52H163.172C161.572 102.12 158.692 103.88 155.972 103.88C151.252 103.88 148.892 100.76 148.892 94.48H163.692ZM178.721 89.6C178.801 87.52 178.841 86.48 178.841 86.44L178.801 85.52C177.121 84.8 175.281 84.4 173.241 84.28C170.721 84.28 168.561 84.8 166.921 86.52C166.121 87.36 165.721 88.44 165.721 89.72C165.721 96.84 177.201 93.88 177.201 100.2C177.201 101.56 176.681 102.6 175.601 103.36C174.561 104.08 173.321 104.44 171.921 104.44C168.721 104.44 166.601 102.32 166.001 99.48L165.761 99.52C165.721 99.96 165.721 100.56 165.721 101.4C165.721 102.2 165.721 102.8 165.761 103.2C167.561 104.4 169.601 105 171.881 105C173.921 105 175.721 104.48 177.281 103.48C178.841 102.44 179.641 101 179.641 99.16C179.641 96.64 177.841 95.12 175.561 94.36C173.321 93.56 170.921 93.08 169.321 91.68C168.561 90.96 168.161 90.04 168.161 88.88C168.161 87.72 168.601 86.76 169.441 85.96C170.321 85.16 171.321 84.76 172.441 84.76C175.681 84.76 178.001 86.96 178.481 89.64L178.721 89.6Z" fill="#0D1117"/>
<path d="M0.36 62.9C0.36 63.74 0.24 64.1 0.48 64.52V64.64L0.36 65.18C0.36 65.42 0.72 66.14 0.72 66.38V66.56L0.66 66.62C0.66 66.86 1.32 67.7 1.32 68V68.12L1.26 68.24C1.26 68.36 1.62 68.72 2.28 69.32C2.94 69.98 3.3 70.34 3.36 70.46C3.42 70.52 3.48 70.64 3.48 70.76H3.9C4.14 70.76 4.8 71.48 5.1 71.48C5.16 71.48 5.4 71.42 5.46 71.42C5.52 71.42 5.58 71.42 5.58 71.48L5.82 71.96C5.94 72.2 6.3 72.02 6.42 72.02V71.96C6.48 71.96 6.54 72.02 6.66 72.14C6.84 72.14 7.44 72.44 7.74 72.44C7.8 72.44 7.8 72.44 7.86 72.38L7.92 72.32L7.98 72.38C8.04 72.62 8.34 72.74 8.94 72.74C9.18 72.56 9.78 72.62 10.08 72.86C10.26 72.86 10.44 72.74 10.5 72.74C10.8 72.74 11.4 73.04 11.64 73.04C11.82 73.04 11.88 72.62 12.3 73.04H12.66C12.72 73.04 12.72 73.04 12.78 72.98L12.84 72.92C12.9 72.92 12.9 72.92 12.96 72.98H13.14C13.32 72.98 13.68 72.86 13.86 72.86C13.92 72.86 14.16 72.98 14.22 72.98C14.52 72.98 15.24 72.56 15.48 72.56L15.6 72.62C15.66 72.68 15.66 72.68 15.72 72.68C15.9 72.68 16.32 72.44 16.5 72.44C16.56 72.44 16.74 72.5 16.8 72.5C17.04 72.5 17.58 72.32 17.82 72.32H18.06C18.06 72.26 18.12 72.26 18.18 72.26C18.24 72.26 18.24 72.26 18.3 72.32L18.36 72.38C18.72 72.38 19.14 72.26 19.62 72.02H19.74C20.04 72.02 20.88 71.72 21.3 71.72H21.9C22.08 71.54 22.26 71.48 22.5 71.48C22.56 71.48 22.74 71.54 22.92 71.54H22.98C23.28 71.06 24.72 71.06 25.14 70.76H25.8C25.92 70.64 26.04 70.58 26.16 70.58C27.3 70.52 28.2 70.22 28.8 69.8C28.92 69.86 29.04 69.86 29.16 69.86C29.34 69.86 29.82 69.8 30.06 69.8C30.12 69.8 30.3 69.44 30.48 69.44H31.38C31.68 69.44 31.92 68.84 32.1 68.84C32.28 68.84 32.46 69.02 32.52 69.02C33.06 69.02 34.56 68.06 35.1 68.06L35.22 68.12H35.4C35.4 67.82 35.4 68.06 37.26 67.4C38.22 67.1 38.7 66.92 38.76 66.86C39.18 66.56 40.02 66.2 41.28 65.78C42.54 65.42 43.44 65.12 43.86 64.82H43.92V64.52C44.22 64.52 44.64 64.22 44.82 64.22C44.88 64.22 45.06 64.28 45.12 64.28C45.18 64.28 45.6 64.1 46.26 63.68C46.92 63.26 47.34 63.08 47.52 63.02C47.82 62.78 49.26 62.24 49.56 61.7H50.04C50.1 61.7 50.1 61.46 50.16 61.46L50.52 61.34C50.82 61.16 51.24 60.92 51.72 60.56H52.26C52.32 60.56 53.04 60.08 54.54 59.18C56.04 58.28 56.76 57.8 56.82 57.74H57.3C57.36 57.74 58.02 57.26 59.16 56.24C60.3 55.28 60.9 54.74 60.9 54.56H61.26C61.68 54.56 62.1 53.3 62.28 53.12V52.64L62.34 52.46L62.46 52.22C62.46 51.8 61.44 50.48 61.02 50.48C60.96 50.48 60.78 50.66 60.54 50.6L60.36 51.14C60.36 51.32 61.08 51.44 61.08 51.68C61.08 51.74 61.02 51.92 61.02 51.98C61.02 52.1 61.08 52.34 61.2 52.7C61.2 52.94 60.6 53.18 60.42 53.36C60.42 53.78 59.34 54.38 58.86 54.56C58.56 54.8 57.84 55.64 57.42 55.94C57.18 56.12 56.4 56.3 56.16 56.54C55.62 56.66 54.48 57.68 54 57.98L51.54 59.12C51.36 59.18 50.58 59.66 49.26 60.44C47.94 61.22 47.22 61.64 47.16 61.64C47.1 61.64 46.98 61.58 46.92 61.58C46.8 61.58 46.68 61.64 46.5 61.7C46.32 61.76 45.06 62.9 44.58 62.84C44.4 63.02 43.98 63.26 43.2 63.56C42.48 63.86 42 64.04 41.76 64.04C41.58 64.04 41.46 64.04 41.34 63.98C40.68 64.52 40.08 64.76 39.66 64.82C39.42 65.06 37.92 65.78 37.5 65.78C37.44 65.78 37.38 65.78 37.32 65.72C36.9 66.02 36.48 66.2 36 66.2C35.7 66.38 34.74 66.56 34.44 66.8L33.66 66.98L33.12 67.34H32.76C32.7 67.34 32.52 67.58 32.46 67.58L31.56 67.7C31.32 67.7 30.6 68.12 30.42 68.12L29.64 68.18C29.52 68.3 29.28 68.36 28.92 68.36C28.74 68.54 28.2 68.66 28.14 68.72C28.08 68.72 27.9 68.66 27.84 68.66C27.6 68.66 26.7 68.96 26.64 69.14H26.58C26.52 69.14 26.52 69.14 26.46 69.08H26.1C25.56 69.08 25.08 69.26 24.54 69.56C24.06 69.56 22.74 70.1 22.32 70.1C22.26 70.1 22.26 70.1 22.2 70.04H22.08C21.24 70.04 20.64 70.22 20.34 70.52H19.86C19.5 70.52 19.02 70.64 18.36 70.94H17.4C16.44 71.18 15.9 71.3 15.78 71.3C15.36 71.12 15.24 71.18 14.76 71.42C14.7 71.42 14.58 71.3 14.4 71.3C14.34 71.3 14.16 71.42 14.1 71.42H12.96C12.66 71.48 12.42 71.54 12.36 71.54H12.18C12.18 71.48 12.18 71.48 12.12 71.48L12.06 71.42H11.4C11.34 71.48 11.28 71.48 11.22 71.48C10.98 71.3 10.8 71.3 10.26 71.42C10.2 71.42 10.08 71.3 9.9 71.3C9.84 71.3 9.6 71.36 9.54 71.36H9.48C9.06 70.94 9.06 71.24 8.82 71.24C8.28 71.24 7.74 71.06 7.08 70.76C5.88 70.16 5.16 69.8 4.92 69.74C4.74 69.56 3.78 68.9 3.72 68.48C3.42 68.18 3.48 68 3 67.88C3.06 67.88 3.06 67.82 3.06 67.76V67.7C3.06 67.46 2.34 66.98 2.34 66.8C2.52 66.62 2.46 66.14 2.16 65.42C2.16 65.36 2.28 65.06 2.28 65C2.28 64.58 1.92 63.68 1.92 63.26C1.92 62.96 2.34 62.3 2.34 62C2.58 61.7 2.7 60.74 2.88 60.44C3.18 59.96 4.44 58.82 4.44 58.16V58.1L4.38 57.98C4.38 57.8 4.44 57.74 4.56 57.74C4.74 57.74 4.86 57.86 4.92 57.86C4.98 57.86 5.04 57.8 5.04 57.74C5.04 57.68 4.92 57.44 4.92 57.38L4.98 57.32H5.28C5.34 57.32 5.94 56.18 6.24 56.12C6.42 56.12 6.72 55.58 6.96 55.52C6.9 55.46 8.04 54.32 8.34 54.08L8.82 53.84C9.18 53.78 13.92 49.34 13.8 49.52H13.92C13.98 49.58 13.98 49.58 14.04 49.58C14.22 49.58 14.82 49.16 15.84 48.38C16.86 47.54 17.58 46.94 17.88 46.64C18.48 46.64 21.18 44.12 21.84 43.76C22.2 43.76 22.68 43.46 23.34 42.8L24.12 42.14L24.24 42.2H24.42H24.54L26.22 41C27.18 40.28 28.08 39.62 28.92 39.08C29.76 38.54 30.36 38.24 30.72 38.24C30.78 38.24 30.78 38.18 30.78 38.12C30.78 38.06 30.84 38 30.9 37.94C30.9 38.12 30.72 38.36 32.34 37.22C33.18 36.62 33.6 36.26 33.6 36.2C33.66 36.26 33.72 36.32 33.84 36.32C34.08 36.32 34.56 36.02 35.34 35.42C36.12 34.76 36.66 34.46 37.02 34.4C37.14 34.16 37.32 34.04 37.56 34.04H37.68C37.74 34.1 37.74 34.1 37.8 34.1C37.86 34.1 37.98 34.1 38.04 34.04C38.4 33.62 38.76 33.38 39.06 33.38L39.24 33.2C39.78 33.2 40.74 32 41.28 32L41.4 32.06H41.46C41.64 32.06 41.82 31.82 42 31.82C42.18 31.64 42.42 31.46 42.72 31.34C42.78 31.28 42.9 31.28 43.02 31.28L43.2 31.34C43.26 31.34 44.58 30.68 44.64 30.62L44.88 30.44L44.94 30.38C45.12 30.38 45.6 30.2 45.84 30.2C46.26 29.96 46.8 29.84 47.52 29.84C47.94 29.72 48.6 29.3 49.08 29.3H49.74C50.1 29.3 50.7 29.12 51.48 28.82C52.26 28.46 52.92 28.28 53.34 28.28C53.52 28.22 53.64 28.16 53.7 28.16C53.82 28.16 54 28.4 54.12 28.4C54.36 28.4 55.08 28.04 55.32 28.04L55.56 27.8C56.04 27.44 55.68 27.44 55.68 27.26C55.68 27.2 55.98 27.02 55.98 26.84V26.66H55.92C55.92 26.6 55.98 26.54 56.04 26.48C56.16 26.42 56.22 26.3 56.22 26.24C56.22 25.82 54.84 25.16 54.36 25.16L52.38 26.12H51.9C51.24 26.54 50.34 26.96 49.2 27.44C48.06 27.86 47.16 28.1 46.62 28.1C46.56 28.1 46.32 28.04 46.26 28.04C46.02 28.04 45.42 28.58 45.24 28.58H44.88L44.76 28.64L44.64 28.7C43.86 28.76 43.2 28.88 42.6 29.06L41.28 29.24C41.22 29.24 41.1 29.3 41.04 29.36C40.74 29.42 40.5 29.48 40.44 29.48C40.38 29.48 40.14 29.36 40.08 29.36C39.66 29.36 38.52 29.84 38.04 29.84H37.92C37.86 29.78 37.8 29.78 37.74 29.78C37.5 29.78 37.02 30.02 36.78 30.02H36.72H36.42L36 30.26C35.82 30.26 35.58 30.08 35.4 30.08C35.1 30.08 34.32 30.2 34.08 30.2H33.9C33.84 30.2 33.78 30.2 33.6 30.14C33.54 30.14 33.48 30.14 33.48 30.2L33.24 30.32C33.18 30.32 33.06 30.26 33 30.2C32.94 30.14 32.88 30.14 32.76 30.14C32.7 30.2 32.58 30.2 32.34 30.2H32.28C32.1 30.2 31.92 29.96 31.86 29.96C31.68 29.96 31.32 30.14 31.14 30.14C30.9 29.96 30.72 29.96 30.36 30.08C30.3 30.08 30.12 29.78 29.94 29.78C29.88 29.78 29.82 29.78 29.76 29.84H29.64C29.1 29.84 28.38 29.36 27.6 28.46C26.82 27.56 26.46 26.78 26.46 26.18C26.46 25.82 26.52 25.58 26.52 25.4C26.52 25.16 27.06 24.5 27.06 24.2C27.06 24.14 27 23.9 27 23.84C27 23.66 27.18 23.42 27.54 23.24L28.08 22.94V22.58C28.08 22.52 28.14 22.52 28.2 22.52C28.26 22.52 28.44 22.58 28.5 22.58C28.92 22.58 29.64 21.08 29.94 21.02C30 21.02 30.54 20.6 31.56 19.76C32.64 18.86 33.24 18.44 33.36 18.44H33.42C33.42 18.86 33.84 17.96 34.2 17.72H34.56L35.1 17.06H35.16L35.28 17.12C35.28 17.12 35.28 17.12 35.34 17.12C35.52 17.12 35.88 16.94 36.42 16.52C36.96 16.1 37.26 15.86 37.26 15.68L37.2 15.56C37.08 15.38 37.5 15.44 37.62 15.68C37.92 15.68 38.34 15.2 38.52 15.02C38.94 15.08 40.02 14.24 40.2 14.18L40.62 13.82H40.68C40.68 13.88 40.74 13.88 40.8 13.88C41.1 13.88 41.76 13.52 42.84 12.8C43.92 12.02 44.64 11.66 45 11.6C45.24 11.36 45.72 11.3 45.9 11.12L46.26 10.76L47.58 10.16C48.48 9.74 48.9 9.56 48.96 9.56C49.02 9.62 49.08 9.62 49.14 9.62H49.2C49.92 9.32 51.48 8.3 52.32 8.12C52.62 8.06 53.28 7.76 54.24 7.34C55.2 6.86 55.86 6.62 56.22 6.62C56.4 6.62 56.58 6.68 56.64 6.68C56.88 6.68 57.6 6.08 57.9 6.08C57.96 6.08 58.14 6.26 58.2 6.26L58.62 5.96C59.1 5.96 58.74 6.38 59.64 5.84C60.3 5.78 62.04 5.18 62.82 5.18C62.88 5.18 63.06 5.3 63.12 5.3C63.3 5.3 63.66 5.06 63.72 5.06C64.08 5.06 64.32 5.12 64.38 5.18H64.62C65.28 5.06 65.76 5.06 66.36 5.12H66.6C66.78 5.18 66.96 5.24 67.2 5.24C67.62 5.42 68.64 6.08 69.06 6.26C69.36 6.8 69.54 7.1 69.72 7.1H69.78L69.84 7.04C69.9 7.04 69.9 7.16 69.9 7.34C69.78 7.7 69.84 7.94 70.02 8.06C70.02 8.36 69.48 9.14 69.54 9.56C69.3 9.62 68.52 11.06 68.4 11.3C68.46 11.54 67.62 12.02 67.62 12.2C67.62 12.26 67.62 12.32 67.68 12.38V12.44L66.9 13.16L66.78 13.34L66.24 13.88C66.12 14.12 65.16 15.08 63.3 16.76L62.76 17.54C62.04 17.9 61.68 18.2 61.74 18.44C61.74 18.62 61.74 18.68 61.8 18.74C61.68 18.86 61.32 18.98 61.32 19.22C61.32 19.46 61.86 19.58 61.92 20C62.04 20.18 62.22 20.12 62.46 20.36L62.52 20.3H63L63.06 20.24C63.06 19.82 63.72 19.58 63.78 19.28C64.02 18.86 64.68 18.2 64.92 17.96C65.28 17.06 65.88 16.4 66.66 15.92L67.26 15.32C67.44 15.26 67.98 14.66 68.88 13.52C69.78 12.38 70.26 11.78 70.2 11.66C70.38 11.36 70.92 10.64 70.8 10.22C71.04 9.98 71.28 9.2 71.34 9.02V8.96L71.28 8.84C71.22 8.78 71.22 8.78 71.22 8.72C71.22 8.66 71.28 8.6 71.4 8.54C71.34 8.3 71.46 8 71.46 7.94C71.46 7.28 70.98 6.38 69.96 5.3C69 4.16 68.22 3.62 67.56 3.62C67.5 3.62 67.26 3.68 67.2 3.68C66.9 3.68 66.12 3.56 65.82 3.56H64.8C64.26 3.56 63.6 3.68 62.7 3.92L60.9 4.28L59.94 4.4C59.52 4.58 58.38 4.7 58.08 4.88C54.72 5.78 52.92 6.38 52.68 6.62L52.38 6.92L50.34 7.88H50.28L50.1 7.82H50.04C49.74 7.82 48.36 8.6 48.18 8.84C47.52 8.96 44.7 10.46 44.7 10.46H44.28C44.04 10.46 43.5 10.82 42.6 11.54C41.7 12.2 41.1 12.56 40.68 12.56C40.38 12.68 39.72 13.04 38.82 13.7C37.92 14.36 37.32 14.66 37.02 14.72L35.28 15.98C34.26 16.76 33.42 17.18 32.88 17.36C32.82 17.42 32.64 17.84 32.4 17.78C32.16 18.02 31.92 18.14 31.62 18.14C31.44 18.26 31.2 18.5 30.78 18.92C30.36 19.16 29.7 19.64 28.92 20.36C28.14 21.08 27.48 21.56 27.06 21.8C26.88 21.86 26.58 22.52 26.28 22.7L25.68 23.42L25.38 23.72V24.08C25.08 24.38 24.96 24.5 25.02 24.56C25.02 24.74 25.02 24.86 25.08 24.86V24.92C25.08 24.98 24.96 25.1 24.78 25.22L24.72 25.28C24.72 25.46 24.84 25.76 24.84 25.82V26C24.78 26.06 24.78 26.06 24.78 26.12C24.78 26.3 24.96 26.42 24.96 26.6V26.66L24.9 26.72H24.96V27.08C24.9 27.14 24.9 27.2 24.9 27.26C24.9 27.5 25.26 27.86 25.26 28.04V28.1C25.26 28.28 25.56 28.34 25.56 28.4C25.74 28.64 25.98 29.3 26.16 29.54C26.34 29.78 26.82 30.14 27.72 30.68C28.62 31.22 29.16 31.46 29.46 31.46H29.7C29.76 31.46 30.12 31.64 30.3 31.64C30.48 31.64 30.72 31.7 30.9 31.7C31.08 31.7 31.56 31.64 31.8 31.64C31.86 31.64 32.04 31.76 32.1 31.76H32.88C32.94 31.82 33.06 31.88 33.24 31.88C33.3 31.88 33.48 31.76 33.54 31.76C33.78 31.76 34.08 32 34.26 32C34.32 32 34.68 31.82 34.74 31.82C34.74 31.88 34.8 31.88 34.92 31.94C35.04 31.94 35.1 31.88 35.1 31.76C35.16 31.7 35.22 31.64 35.28 31.64L35.58 31.76H36.18C36.54 31.58 37.08 31.58 37.56 31.7C37.98 31.7 39.18 31.34 39.66 31.34H39.84L39.9 31.4C39.9 31.64 39.84 31.76 39.66 31.76L39.06 31.82C38.64 31.88 37.32 32.66 35.04 34.1C32.82 35.48 31.56 36.38 31.26 36.74C31.02 36.98 30.48 36.92 30.3 37.1C29.76 37.7 24.72 40.04 25.02 40.76C24.84 40.76 24.72 40.58 24.66 40.58C24.24 40.58 23.88 40.82 23.64 41.36C23.46 41.36 23.28 41.42 23.04 41.48C22.8 41.78 22.62 41.96 22.44 42.02C22.32 42.14 22.26 42.26 22.26 42.44C21.84 42.44 21.3 43.22 21.24 43.22C21 43.22 19.92 43.88 18.06 45.14C16.2 46.4 15.18 47.12 15 47.18C14.76 47.24 14.64 47.42 14.64 47.78C14.34 47.9 13.74 48.38 12.84 49.22C12 50 11.4 50.42 11.04 50.36C10.8 50.54 10.62 51.02 10.44 51.08C10.14 51.26 9.24 51.92 7.74 53.06C6.3 54.2 5.52 54.92 5.46 55.22L4.56 55.94L4.32 56.42C4.14 56.66 3.48 57.08 3.3 57.26C1.74 59.24 0.96 60.44 0.96 60.86V60.98L1.02 61.04C1.02 61.28 0.48 62.18 0.54 62.72C0.54 62.78 0.48 62.78 0.42 62.84L0.36 62.9ZM40.56 30.92C40.74 30.74 40.8 30.68 40.86 30.68C41.04 30.68 41.16 30.8 41.16 30.98C41.16 31.04 41.04 31.16 40.74 31.34L40.44 31.52L40.32 31.34V31.22V31.16L40.56 30.92ZM21.48 61.7C21.6 61.7 21.66 61.64 21.66 61.58C21.66 61.4 21.6 61.34 21.48 61.34C21.42 61.4 21.36 61.4 21.36 61.46V61.52C21.42 61.58 21.42 61.64 21.42 61.7H21.48ZM47.4 9.44C47.52 9.44 47.64 9.44 47.7 9.5C47.58 9.62 47.52 9.68 47.46 9.68C47.4 9.68 47.34 9.62 47.34 9.5C47.34 9.44 47.34 9.44 47.4 9.44ZM25.56 40.52C25.56 40.46 25.8 40.46 25.8 40.52C25.8 40.76 25.56 40.76 25.56 40.52ZM41.88 31.46C41.82 31.46 41.82 31.4 41.82 31.34C41.88 31.28 41.88 31.28 41.94 31.28L42 31.34C42 31.4 41.94 31.46 41.88 31.46ZM26.28 24.92H26.4C26.4 24.98 26.4 25.04 26.34 25.04C26.28 25.04 26.22 25.04 26.22 24.98L26.28 24.92ZM26.1 26.84C26.1 26.66 26.22 26.66 26.22 26.9C26.16 26.9 26.16 26.9 26.1 26.84ZM54.66 6.86C54.6 6.86 54.6 6.74 54.66 6.74V6.86ZM28.8 38.42V38.48V38.42ZM9.18 53.12V53.06V53.12ZM26.28 26.96V26.9V26.96ZM30.48 38C30.48 38.06 30.48 38.06 30.54 38.06H30.48V38ZM66.942 41.12C66.762 41.12 66.762 40.88 67.002 40.88C67.062 40.88 67.122 40.94 67.122 41C67.182 41.06 67.122 41.12 66.942 41.12ZM62.922 56.12C62.922 56.06 62.982 56 63.042 56C63.162 56 63.222 56.06 63.222 56.12V56.18H63.102C62.982 56.18 62.922 56.18 62.922 56.12ZM63.222 51.38C63.222 51.26 63.282 51.2 63.402 51.2C63.582 51.2 63.642 51.26 63.642 51.44C63.582 51.68 63.402 51.68 63.222 51.38ZM74.622 45.62C74.622 45.44 74.742 45.38 74.922 45.38C74.982 45.38 75.042 45.44 75.102 45.5C74.862 45.56 74.682 45.62 74.622 45.62ZM86.082 40.34C86.322 40.28 86.742 40.28 87.342 40.28C88.062 40.28 88.422 40.52 88.422 40.94C88.602 41.48 87.342 42.8 87.102 43.16C87.102 43.52 86.862 44 86.382 44.54C85.902 45.08 85.662 45.38 85.662 45.56C85.662 45.62 85.722 45.74 85.722 45.8L84.222 47.42C84.222 47.54 84.222 47.6 84.282 47.6C84.282 47.78 83.502 48.62 81.882 50.24V50.3C81.822 50.36 81.822 50.42 81.822 50.6C80.562 52.46 79.182 53.9 77.622 55.04C77.622 55.34 77.142 55.82 76.182 56.54C75.282 57.26 74.802 57.8 74.742 58.16C74.682 58.1 74.622 58.04 74.562 58.04C74.202 58.04 73.422 59.12 73.062 59.3C70.002 61.04 68.202 61.88 67.722 61.88H67.542C67.482 61.82 67.362 61.82 67.302 61.82L67.122 62.06H67.002C65.382 62.06 63.942 59.96 63.942 58.28V58.16C64.122 57.98 63.822 57.86 63.942 57.56V57.5C63.762 56.96 63.762 56.78 63.882 56.66C63.882 56.42 63.582 55.94 63.582 55.76C63.582 55.7 63.762 55.58 63.762 55.52C63.762 55.28 63.642 54.74 63.642 54.5L63.762 54.26V53.66C63.762 53.42 64.422 52.64 64.602 52.58C65.142 52.46 65.922 52.04 66.882 51.32L68.502 50.06L70.422 48.8L73.782 46.52C74.802 45.8 75.342 45.44 75.342 45.38C75.342 45.32 75.282 45.2 75.222 44.96C75.282 45.02 75.402 45.38 75.582 45.38C75.822 45.38 76.122 44.9 76.182 44.9C76.182 44.96 76.242 44.96 76.362 44.96V45.02C76.482 45.02 76.602 44.9 76.722 44.66L76.902 44.42C77.262 44.36 78.102 43.82 79.482 42.92C80.862 42.02 81.702 41.54 81.882 41.54C81.942 41.54 82.242 41.72 82.302 41.72C82.722 41.72 83.322 41.48 84.102 41C84.882 40.52 85.422 40.28 85.842 40.28C85.902 40.28 86.022 40.34 86.082 40.34ZM82.782 50.06C82.662 50.06 82.602 50 82.602 49.82C82.722 49.82 82.842 49.88 82.902 49.94V50C82.902 50.06 82.842 50.06 82.782 50.06ZM87.762 42.8C87.942 42.62 88.122 42.62 88.122 42.8C88.122 42.86 88.122 42.86 88.062 42.92C87.942 42.92 87.822 42.86 87.762 42.8ZM88.722 41.66C88.722 41.48 88.782 41.42 88.902 41.42L88.962 41.54C88.962 41.6 88.902 41.66 88.722 41.66ZM68.562 35.9C68.562 36.08 68.322 36.5 67.902 37.16C67.482 37.82 67.302 38.18 67.242 38.3C67.242 38.6 66.762 39.38 66.822 39.68C66.642 39.86 66.282 40.04 66.282 40.34C66.282 40.4 66.282 40.4 66.342 40.46V40.52C66.342 40.58 66.282 40.64 66.162 40.64C66.102 40.82 65.742 42.14 65.442 42.56C65.502 42.98 65.322 43.52 64.902 44.18C64.482 44.84 64.242 45.38 64.242 45.68C64.242 45.74 64.242 45.8 64.302 45.86V45.92H64.242L64.182 45.98V45.92H64.122C64.062 46.1 64.002 46.28 64.002 46.58C63.702 46.88 63.582 47.24 63.582 47.72C63.582 47.96 63.162 48.44 63.162 48.62C63.162 48.68 63.222 48.92 63.222 48.98C63.222 49.04 62.742 50.6 62.682 51.02C62.682 51.14 62.682 51.32 62.622 51.56L62.442 51.8L62.502 51.92C62.562 51.92 62.562 51.92 62.562 51.98C62.562 52.16 62.322 52.22 62.322 52.28C62.322 52.46 62.382 52.52 62.562 52.52H62.622L62.682 52.4L62.802 52.46C62.802 52.52 62.862 52.52 62.982 52.58C62.982 52.7 62.922 52.76 62.862 52.76H62.502L62.022 53.48C61.782 53.66 61.302 54.44 61.122 54.5C60.282 55.04 59.262 56 58.062 57.26C56.862 58.58 56.022 59.48 55.542 59.9C55.542 60.08 55.542 60.14 55.482 60.2C55.422 60.2 54.882 60.68 53.862 61.58C52.842 62.48 52.302 63.02 52.302 63.08V63.38C52.302 63.5 51.162 64.46 50.982 64.64C50.982 64.82 50.922 65.12 50.922 65.18L50.382 65.54V65.66L50.442 65.72C50.442 65.9 50.322 66.02 50.322 66.08C50.322 66.56 51.462 66.92 52.002 66.92H52.422C52.482 66.92 53.082 66.44 53.142 66.38C53.142 66.14 52.722 65.66 52.722 65.48C52.722 65.18 52.782 64.82 52.842 64.52C53.022 64.22 53.862 63.26 55.362 61.64C56.802 60.02 57.642 59.18 57.882 59.12C58.182 58.94 59.142 57.92 59.322 57.74C59.442 57.68 59.502 57.62 59.502 57.56C59.502 57.5 59.382 57.32 59.382 57.26V57.14C59.502 56.96 60.042 56.66 61.002 56.18C61.122 55.82 61.422 55.64 61.842 55.64C62.142 55.64 62.322 55.88 62.322 56.42C62.322 56.48 62.262 56.6 62.262 56.78C62.262 56.84 62.382 57.2 62.382 57.44C62.382 57.5 62.322 57.74 62.322 57.8C62.322 58.04 62.502 58.34 62.502 58.52V58.64C62.442 58.7 62.442 58.7 62.442 58.76C62.622 58.94 62.922 59.54 63.222 60.44C63.582 61.34 64.002 61.94 64.482 62.24L65.022 62.84L65.742 63.14H65.802H66.822C67.002 63.14 67.362 63.02 67.542 63.02C67.662 63.2 68.142 63.14 68.442 62.9C69.342 63.08 70.422 61.94 70.962 61.58C71.262 61.64 71.862 61.34 72.762 60.74C72.762 60.68 72.822 60.56 72.942 60.44C73.542 60.38 74.442 59.78 75.582 58.58C76.782 57.38 77.442 56.72 77.622 56.6C77.922 56.6 78.702 55.76 78.942 55.7C78.942 55.52 78.942 55.46 79.002 55.4L79.602 54.8C79.662 54.62 80.502 53.96 80.562 53.72C80.802 53.42 81.522 52.76 81.702 52.52C81.642 52.4 81.762 52.22 82.002 51.92L82.422 51.5C83.322 50.42 85.662 47.72 85.842 46.76C87.402 44.9 88.182 43.82 88.182 43.58V43.46C87.702 43.46 88.662 43.04 88.842 42.56L88.902 42.14C89.202 41.96 89.742 40.7 89.742 40.4C89.742 39.86 88.722 38.9 88.182 38.9H87.642C87.582 38.9 87.402 38.72 87.342 38.72H87.282L87.222 38.78H86.142C86.082 38.78 86.082 38.78 86.022 38.84C86.022 38.84 85.962 38.84 85.902 38.9C85.782 38.96 85.722 39.02 85.722 39.08C84.822 39.08 84.402 39.14 84.402 39.32C84.402 39.38 84.462 39.56 84.462 39.62L83.622 39.92C82.482 40.34 81.042 40.94 80.862 41.18C80.562 41.48 80.202 41.72 79.782 41.78L79.242 42.08C79.062 42.32 78.102 42.98 77.922 43.04L77.442 43.22C77.382 43.22 77.382 43.76 77.202 43.76C77.142 43.76 76.902 43.58 76.842 43.58C76.542 43.58 75.942 43.94 74.922 44.72C73.962 45.5 73.422 45.86 73.302 45.86L73.182 45.8H73.062L72.822 46.04C72.342 46.1 70.962 47.18 70.782 47.66L70.602 47.6C70.482 47.6 70.302 47.72 70.062 47.96L69.762 48.32C69.222 48.62 64.542 51.98 64.302 51.8L64.182 51.74C64.122 51.68 64.062 51.5 64.062 51.14C64.302 51.02 64.362 50.84 64.182 50.6L64.242 50.54C64.302 50.48 64.302 50.48 64.302 50.42V49.76C64.302 49.7 64.662 49.4 64.662 49.22L64.722 48.74L64.842 48.56C64.842 47.9 65.202 47.06 65.502 46.4L65.742 45.98V45.92C65.682 45.86 65.682 45.8 65.682 45.74C65.682 45.56 65.862 45.08 66.282 44.42C66.702 43.7 66.942 43.28 67.122 43.1V42.68C67.302 42.32 67.362 42.2 67.242 42.02C67.242 41.78 67.722 41.42 67.722 41.24C67.722 41.18 67.542 40.94 67.542 40.88C67.542 40.64 68.082 40.46 68.082 40.28L68.022 40.16C67.902 40.16 68.382 39.68 68.262 39.62L68.202 39.56V39.5C68.562 39.44 68.742 39.26 68.742 38.96C68.682 38.9 68.682 38.84 68.682 38.78C68.682 38.72 68.862 38.6 69.102 38.42L69.282 38.3V38.18L69.222 38.06L69.462 37.82C69.702 37.52 70.122 37.1 70.182 36.92C70.302 36.68 70.362 36.44 70.362 36.26C70.362 36.2 70.362 36.14 70.302 36.08L70.242 36.02L70.362 35.9L70.482 35.84V35.18C70.482 35 70.722 34.7 70.722 34.64V34.52C70.182 34.22 69.822 34.1 69.762 34.1C69.042 34.1 68.562 35.12 68.562 35.9ZM83.502 40.94C83.562 40.94 83.562 40.94 83.562 41L83.502 41.06C83.322 41.06 83.322 40.94 83.502 40.94ZM79.842 42.08V42.14V42.08ZM79.542 42.86C79.482 42.86 79.422 42.8 79.422 42.74C79.542 42.74 79.602 42.74 79.602 42.8L79.542 42.86ZM75.762 44.66C75.762 44.6 75.762 44.6 75.822 44.6V44.66H75.762ZM67.062 50.6L67.122 50.54C67.182 50.6 67.242 50.6 67.242 50.66C67.182 50.66 67.122 50.66 67.062 50.6ZM77.562 56.3L77.682 56.18L77.742 56.3L77.682 56.36L77.562 56.3ZM74.262 59.42H74.202H74.262ZM55.122 60.86V60.92V60.86ZM52.962 63.62V63.56H53.082C53.022 63.56 53.022 63.56 52.962 63.62ZM66.8669 86.3C66.8069 86.6 66.0269 87.2 66.0269 87.62C66.0269 88.04 66.4469 89.42 66.8669 89.42C66.9869 89.42 67.3469 89.24 67.9469 88.82C68.5469 88.46 68.8469 88.22 68.8469 88.1C68.8469 88.04 68.7869 87.8 68.6669 87.44C68.6669 87.14 69.3269 86.3 69.3269 85.88L69.2669 85.64V85.58L69.8069 84.32C70.1069 83.48 70.4669 82.58 70.8869 81.68C71.2469 80.78 71.4269 80.3 71.4269 80.24C71.9669 79.46 72.2669 79.1 72.2669 79.04V78.68C72.7469 77.96 72.9869 77.54 72.9869 77.48C72.6269 77.18 73.2869 77.12 72.9869 76.64C73.7069 76.64 74.4269 74.78 74.4269 74C75.3269 73.1 76.1069 71.3 76.7069 68.72C76.7669 68.54 77.2469 68.42 77.2469 68.24V68.18C77.2469 68.12 77.2469 68.06 77.1869 68C77.1869 67.82 77.4869 67.28 78.1469 66.44C78.7469 65.6 79.0469 65.06 79.1069 64.76C79.3469 64.58 79.9469 63.74 79.9469 63.44C80.0069 63.44 80.0069 63.38 79.9469 63.32V63.2C80.7269 62.42 81.4469 61.28 82.0469 59.78C82.5869 59.24 83.4869 57.26 83.9669 56.78C84.2669 56.48 84.7469 55.88 85.2869 55.1C85.8269 54.32 86.3069 53.72 86.7269 53.36C86.7269 53.3 86.7869 53.3 86.8469 53.24V52.94C88.3469 51.44 89.0669 50.66 89.0669 50.48L90.6869 48.98C91.5869 48.08 92.4269 47.3 93.1469 46.52C93.9269 45.74 94.2869 45.26 94.2869 45.02C94.4069 44.9 94.5869 44.84 94.8269 44.84C95.2469 44.18 96.5669 43.34 98.9069 42.44C99.3269 41.9 99.8669 41.66 100.587 41.66C101.067 41.66 102.147 40.94 102.687 40.94L102.807 41C102.867 41.06 102.927 41.06 102.987 41.06C103.407 41.06 104.127 40.7 104.547 40.7C104.787 40.7 105.327 40.94 105.507 40.94C105.567 40.94 105.747 40.82 105.807 40.82C106.047 40.82 106.227 40.94 106.407 41.18C106.887 41.12 107.247 41.6 107.247 42.08C107.367 42.2 107.487 42.26 107.547 42.26C107.667 42.62 107.727 43.04 107.727 43.46V44.12C107.727 44.36 107.487 44.9 107.547 45.2L106.287 47.84C106.287 47.9 106.287 47.96 106.347 47.96C106.347 48.08 106.347 48.14 106.407 48.14C106.407 48.44 105.627 48.62 105.627 48.8L105.687 48.92C105.687 48.92 105.687 48.92 105.687 48.98C105.687 49.16 104.607 49.76 104.607 50.06H104.667V50.24L104.247 50.66C104.007 50.66 103.467 50.96 103.227 50.9C102.987 50.9 102.447 50.72 102.207 50.72C101.907 50.72 101.187 51.08 100.947 51.08C100.647 50.6 100.227 50.96 99.6869 50.72C98.7869 50.72 98.0069 50.84 97.3469 51.14C97.1669 51.2 96.7469 51.56 96.5669 51.56C96.5069 51.56 96.5069 51.56 96.4469 51.5L96.3269 51.44C95.7869 51.44 94.8269 51.86 93.4469 52.7C92.0669 53.54 91.1069 54.2 90.6269 54.74C90.5669 54.92 90.4469 55.04 90.2069 55.1L89.6069 55.64C89.4269 55.94 89.2469 56.12 88.9469 56.3C88.7669 56.6 88.0469 57.44 87.8669 57.92L87.4469 58.34C87.3869 58.64 87.2069 59.18 86.7869 59.9C86.4269 60.62 86.2469 61.22 86.3069 61.64C86.1869 61.64 86.1269 61.7 86.1269 61.88C86.0669 61.88 86.0669 61.94 86.0669 62.06C86.0669 62.36 86.2469 62.36 86.2469 62.6C86.2469 62.78 86.0069 63.26 86.0069 63.5C86.0069 63.56 86.0669 63.62 86.2469 63.8C86.2469 64.22 86.4269 64.58 86.7269 64.88C87.3869 65.12 87.8069 65.24 87.9869 65.24H88.2269C88.3469 65.18 88.4669 65.12 88.5269 64.94C88.5869 64.94 88.5269 65.18 88.7069 65.18C89.1869 65.18 90.0869 64.76 91.3469 63.98C92.6669 63.2 93.3269 62.78 93.3869 62.78C93.4469 62.78 93.5069 62.78 93.5669 62.84H93.6269C93.6869 62.84 93.8669 62.72 94.1669 62.54L94.6469 62.24L95.1269 61.7C95.1869 61.58 95.6669 61.22 96.5069 60.62C97.3469 60.08 97.8269 59.6 97.9469 59.3L98.5469 58.7C98.7269 58.64 98.9669 58.34 99.0269 58.28L100.287 57.32C100.347 57.26 100.407 56.96 100.467 56.9C100.707 56.6 102.147 55.46 102.387 54.92C102.747 54.56 104.247 52.28 104.727 52.28C104.907 52.28 105.087 52.4 105.147 52.4C105.327 52.4 105.507 52.34 105.747 52.28C105.927 52.28 107.067 52.64 107.367 52.58C107.907 53 109.227 53.3 111.207 53.42C111.387 53.6 111.987 53.66 113.067 53.66C114.387 53.66 115.587 53.12 116.727 51.98L117.807 50.9C118.227 50.6 118.407 50.24 118.407 49.88C118.407 49.7 117.987 49.16 117.747 49.16L117.447 49.4C115.827 51.26 114.687 51.56 112.767 52.4C112.527 52.22 112.107 52.22 111.567 52.34C111.447 52.34 111.327 52.28 111.267 52.22C110.187 52.22 108.927 51.98 107.487 51.44C107.427 51.38 107.307 51.32 107.247 51.2L107.187 51.08C107.067 51.14 106.947 51.2 106.767 51.2C106.527 51.2 106.287 51.14 106.107 51.14C105.927 51.14 105.867 51.08 105.867 50.9C105.867 50.72 106.107 50.42 106.107 50.24L106.347 49.94C106.347 49.76 107.667 48.14 107.667 48.08C108.447 47.18 109.167 45.02 109.167 43.76C109.167 43.58 109.047 43.46 109.047 43.28C109.047 43.22 109.107 42.92 109.107 42.74V42.5C109.047 42.44 109.047 42.38 109.047 42.32V42.26C109.047 42.32 109.047 42.26 109.107 42.08C109.107 41.84 108.387 40.76 108.147 40.82C108.087 40.82 107.907 40.58 107.487 40.1C107.067 39.62 106.707 39.38 106.407 39.38H106.227L106.107 39.2L106.047 39.08H105.807C105.507 39.08 104.907 39.32 104.727 39.32C104.547 39.32 104.247 39.2 103.767 39.02H103.707C103.167 39.56 102.447 39.8 101.427 39.8C101.187 39.86 100.227 40.58 99.9269 40.58C99.8669 40.58 99.6869 40.52 99.5069 40.52C99.2669 40.52 98.7269 41.06 98.5469 41.06H98.1269C98.0669 41.06 97.8869 41.48 97.8269 41.48L97.5269 41.72C97.1069 41.72 96.8069 41.84 96.6269 42.02L95.9069 42.74C95.1269 43.46 94.4669 44.06 93.8069 44.48C93.5069 44.48 92.6069 45.38 91.1069 47.12C90.3269 47.54 89.1269 49.22 88.4669 49.64H88.4069C88.3469 49.64 88.2869 49.64 88.2869 49.58C88.2869 49.16 89.2469 48.68 89.2469 48.26C89.7869 47.72 90.2069 47.06 90.6269 46.28H90.9869C91.0469 46.22 91.0469 46.16 91.0469 46.1V45.98C91.0469 46.04 91.0469 45.98 90.9869 45.86C90.9269 45.86 90.9869 45.8 91.0469 45.74C91.4069 45.8 91.5869 45.68 91.5869 45.32C91.5869 45.26 91.5869 45.26 91.5269 45.2V45.08L92.3669 44.24C93.3869 43.22 94.8269 41.66 95.0069 41C95.0669 40.82 95.9669 40.1 96.0269 40.1H96.2069C96.3869 40.04 96.7469 39.38 96.7469 39.2C96.7469 39.14 95.9669 38.3 95.9069 38.3H95.5469C95.4869 38.42 95.3069 38.48 95.0669 38.48C95.0069 38.48 94.9469 38.42 94.8869 38.36C94.8269 38.3 94.7069 38.24 94.6469 38.24C94.1669 38.24 94.1069 38.84 94.1069 39.08C93.8669 39.32 93.5669 40.28 93.3869 40.34C93.0869 40.34 91.4069 42.62 91.0469 42.98C90.9869 43.04 91.0469 43.28 90.9869 43.34L90.5069 43.82C90.4469 44.12 89.9669 44.6 89.9669 44.9L89.7869 45.08L89.6669 45.2V45.5L88.7669 46.88C88.1069 47.78 87.4469 48.8 86.7869 49.82C86.1269 50.84 85.7669 51.44 85.7069 51.62C85.4669 52.52 83.7269 54.5 83.2469 55.22C82.7069 56 81.5069 58.34 80.7869 59.3C80.6069 60.14 80.1269 60.86 79.4669 61.46L78.8069 62.72C78.3869 63.5 78.0269 64.04 77.7269 64.28C77.7269 64.52 77.2469 65.42 76.3469 66.92C75.3869 68.48 74.8469 69.32 74.6669 69.38L72.8669 73.34C72.2069 74.18 71.4869 75.56 70.7669 77.48C70.7069 77.78 70.4069 78.38 69.8669 79.28C69.3269 80.24 69.0269 81.02 68.9669 81.56C68.9669 81.62 68.4869 82.16 68.4269 82.34C68.3069 82.88 68.0669 83.6 67.6469 84.5L66.8669 86.3ZM87.4469 62.6C87.4469 62.36 87.6269 61.76 87.6269 61.52V61.28H87.5669C87.5669 61.04 87.7469 60.56 88.1669 59.9C88.5869 59.24 88.9469 58.82 89.1869 58.76C89.2469 58.58 89.6669 57.98 89.7269 57.8C90.1469 57.14 91.2269 56.18 91.5269 55.76C91.9469 55.34 94.8269 53.48 94.8269 53.42V53.24C95.1269 53.24 95.7869 52.88 96.0269 52.88C96.0869 52.88 96.2669 52.94 96.3269 52.94C96.3869 52.94 96.5669 52.88 96.8069 52.76C96.8669 52.82 96.9269 52.82 96.9869 52.82L97.1069 52.76C97.2869 52.52 97.6469 52.4 98.1269 52.4H98.2469L98.3669 52.46C98.4269 52.46 98.7269 52.16 98.9069 52.16H99.6869L100.467 51.98H100.707C101.907 52.4 101.907 51.74 102.267 52.16H102.807V52.28C102.807 52.76 101.547 54.08 101.127 53.9L101.067 53.96C101.067 54.14 101.307 54.26 101.307 54.32C101.307 54.5 101.067 54.56 101.067 54.62V54.92H101.007C100.947 54.92 100.887 54.68 100.827 54.68C100.647 54.68 100.047 55.34 99.9869 55.58C99.3869 56.36 98.8469 57.02 98.3069 57.56C97.7069 57.86 97.1669 58.28 96.6869 58.82C96.8069 59.12 95.0669 60.26 94.7669 60.56C93.9869 61.04 92.5469 62.6 91.5269 62.6H91.3469C91.1669 62.66 90.6869 62.9 90.0269 63.32C89.3669 63.8 88.8269 64.04 88.4669 64.04C87.8069 64.04 87.5069 63.62 87.5669 62.84C87.5069 62.78 87.4469 62.66 87.4469 62.6ZM86.5469 61.64L86.4869 61.7L86.3669 61.64H86.4269L86.4869 61.58L86.5469 61.64ZM101.127 55.58V55.64V55.58ZM92.2469 53.78V53.84V53.78ZM116.5 55.76C116.26 55.76 116.26 55.4 116.44 55.4C116.62 55.4 116.56 55.76 116.5 55.76ZM120.46 47.24L120.52 47.18C120.7 47.18 120.76 47.24 120.76 47.36C120.76 47.42 120.76 47.42 120.7 47.42H120.4C120.34 47.42 120.28 47.36 120.28 47.3L120.34 47.24H120.46ZM121.06 42.62C121.06 42.56 121.12 42.5 121.24 42.44C121.3 42.44 121.3 42.5 121.36 42.56C121.36 42.68 121.3 42.74 121.18 42.74L121.06 42.62ZM137.86 49.46C137.74 49.46 137.68 49.4 137.68 49.22C138.1 49.22 138.04 49.46 137.86 49.46ZM146.86 15.32C147.16 15.32 147.88 15.08 148.12 15.08C148.66 15.08 149.02 15.26 149.32 15.56C149.32 15.74 149.26 15.92 149.26 15.98C149.26 16.1 149.26 16.16 149.32 16.16C149.38 16.4 149.44 16.52 149.44 16.58C149.44 16.76 149.02 17.18 149.02 17.24C149.02 17.3 149.14 17.54 149.14 17.72C149.14 17.78 148.72 17.96 148.72 18.2V18.26C148.72 18.32 148.72 18.38 148.78 18.5C148.78 18.68 148.48 18.68 148.48 18.74V19.1C148.06 19.28 147.52 20.06 147.58 20.48L146.68 21.74C146.14 22.52 145.9 23 145.9 23.06L145.84 23.12H145.54V23.48L145.36 23.72L144.58 24.44L144.28 24.98C144.16 25.1 142.78 26.66 142.78 26.72C142.78 26.78 142.66 26.9 142.48 27.08L142.42 27.2C142.3 27.5 140.92 28.46 140.92 28.76L140.98 28.82L141.04 28.88C141.04 28.94 140.5 29.42 139.48 30.32C138.46 31.22 137.92 31.76 137.92 31.88V32C137.98 32.06 137.98 32.06 137.98 32.12C137.98 32.18 137.92 32.24 137.86 32.24C137.56 32.3 136.84 32.9 135.76 34.04C134.68 35.18 134.14 35.72 134.08 35.72C133.9 35.9 133.48 36.2 132.82 36.68C132.16 37.1 131.8 37.52 131.74 37.82C131.2 38.18 130.84 38.42 131.08 38.66C130.9 38.72 130.54 38.9 130.06 39.26C129.82 39.32 129.04 39.86 129.04 40.1C129.04 40.16 129.4 40.28 129.04 40.28L128.92 40.22C128.32 40.22 127.3 41.6 126.94 41.96C126.52 41.96 125.98 42.92 125.56 42.86C125.38 43.1 124.96 43.52 124.18 44.18C123.46 44.84 123.04 45.14 122.86 45.14L122.8 45.08H122.62C122.44 45.08 121.9 45.5 121 46.4C120.1 47.24 119.56 47.66 119.38 47.66C119.32 47.6 119.26 47.6 119.26 47.54C119.26 47.12 120.04 46.34 120.04 46.16C120.04 46.1 119.92 45.92 119.92 45.74C119.92 45.5 120.34 44.96 120.34 44.66C120.34 44.6 120.16 44.36 120.16 44.3L120.22 44.24C120.28 44.24 120.52 44.36 120.58 44.36C120.64 44.36 120.7 44.24 120.7 44C120.94 43.82 121.42 42.92 121.72 42.74V42.38C122.68 41.42 123.16 40.7 123.16 40.16C123.16 40.1 123.04 39.98 123.04 39.92V39.86C123.28 39.86 123.4 39.62 123.4 39.38H123.7V39.32C123.7 39.08 123.4 39.08 123.58 38.9C123.88 38.72 124.6 37.64 124.9 37.58V37.34L124.96 37.28C125.2 37.16 125.32 36.98 125.32 36.74V36.62C125.32 36.32 126.28 35.54 126.28 35.36V35.12L126.4 35.06C126.46 35 126.52 35 126.52 34.94V34.7C126.52 34.64 126.76 34.58 126.76 34.52C126.76 34.22 127.18 33.98 127.36 33.68V33.62C127.36 33.56 127.3 33.44 127.3 33.38C127.3 33.2 128.26 32.84 128.26 32.6L128.2 32.48C128.2 32.48 128.2 32.48 128.2 32.42V32.36C128.5 32.18 129.34 30.92 129.28 30.62C129.46 30.62 129.58 30.56 129.7 30.38C129.7 30.08 130.06 29.84 130 29.54C130.18 29.3 130.9 29.12 130.96 28.94C131.74 27.56 132.34 26.9 132.64 26.9V26.84C132.58 26.78 132.58 26.72 132.58 26.66L132.64 26.6C132.7 26.54 132.76 26.54 132.76 26.48L132.7 26.3V26.24C132.7 26.06 132.76 25.94 132.94 25.88L133.06 25.94C133.12 26 133.18 26 133.24 26C133.36 26 133.42 25.94 133.42 25.76C133.48 25.22 134.62 24.86 134.62 24.44V24.26C134.62 24.2 134.8 23.96 134.8 23.9C134.8 23.78 134.74 23.72 134.68 23.66H134.74C134.8 23.66 135.04 23.9 135.22 23.9C135.4 23.9 135.4 23.42 135.58 23.42C135.64 23.42 135.76 23.48 135.82 23.48H135.88C136.12 23.48 136.24 23.24 136.24 22.82V22.64H136.48C136.72 22.28 139.06 20.24 139.06 20.06V19.64L139.12 19.58H139.36C139.6 19.28 141.1 18.44 141.1 18.32C141.1 18.14 141.04 18.14 140.86 18.14C140.8 18.08 140.74 18.08 140.74 18.02L140.8 17.96V17.9H140.86C141.04 17.9 141.34 18.08 141.52 18.08C141.64 18.08 141.94 17.84 142.48 17.42C143.02 17 143.38 16.76 143.5 16.7C144.22 16.52 146.02 15.5 146.74 15.32H146.86ZM135.4 22.16C135.4 22.1 135.46 22.1 135.52 22.1C135.64 22.1 135.7 22.16 135.7 22.28L135.64 22.34C135.46 22.34 135.4 22.28 135.4 22.16ZM140.68 29.84C140.44 29.84 140.44 29.6 140.68 29.6C140.86 29.6 140.86 29.84 140.68 29.84ZM148.78 14.12C148.78 14.18 148.78 14.18 148.84 14.24V14.3L148.66 14.42L148.54 14.36L148.78 14.12ZM146.8 13.58C144.88 14.36 143.62 14.9 143.02 15.2H142.96C142.9 15.2 142.78 15.14 142.72 15.08C142.42 15.2 141.76 15.62 140.86 16.28C139.96 16.94 139.54 17.42 139.48 17.6C139.06 17.54 138.04 18.44 138.04 18.74L137.74 19.04C137.5 19.1 136.3 20.36 135.34 21.38C134.44 22.4 133.06 23.9 133 24.08C132.82 24.44 132.64 25.04 132.28 25.04L131.98 25.34C131.8 25.76 131.2 26.6 130.18 27.74C129.16 28.88 128.68 29.54 128.68 29.78V29.96C128.68 30.02 127.96 30.92 126.52 32.72C125.08 34.52 124.36 35.6 124.36 35.9C124.36 35.96 124.36 35.96 124.42 36.02L124.48 36.08C124.48 36.14 124.12 36.08 124.06 36.26C123.82 36.68 123.64 36.98 123.58 37.16C123.4 37.34 123.04 38 122.5 39.08C121.96 40.1 121.48 40.76 121.18 41.06L120.88 41.42C120.82 41.48 120.7 41.6 120.52 41.9V42.02L120.58 42.08C120.58 42.32 119.92 42.86 119.92 43.16V43.28C119.98 43.34 119.98 43.34 119.98 43.4C119.98 43.64 119.32 44 119.26 44.3C119.26 44.6 118.6 45.26 118.36 45.5C118.42 46.04 118.06 47 117.22 48.38C116.44 49.7 116.02 50.36 116.02 50.42V51.62C116.02 51.8 115.9 52.64 115.72 52.94C115.3 54.86 115.06 55.88 115.06 55.94C115.18 56.06 115.18 56.6 115.06 57.2C115.06 60.02 115.84 61.7 117.34 62.24C118.42 62.48 119.14 62.6 119.44 62.6C120.76 62.6 122.92 61.82 125.86 60.32C125.92 60.26 126.94 59.18 127.48 59.18C127.54 59.18 127.54 59.12 127.54 59.06C127.54 59 127.48 58.82 127.48 58.76C127.54 58.76 127.78 58.82 127.84 58.82L128.68 58.16C129.1 58.16 129.7 57.68 129.76 57.38C129.82 57.2 131.26 56.42 131.26 56.18C131.26 56 130.96 55.94 130.96 55.88L131.08 55.76C131.14 55.82 131.26 55.88 131.44 55.88C131.68 55.88 132.22 55.52 132.22 55.34V55.1C132.22 55.04 133.24 54.62 133.3 54.2C133.3 54.08 134.74 53.3 134.86 53.06C134.92 52.64 136.24 51.68 136.42 51.26C136.72 51.14 137.62 50.42 138.04 50.3C138.46 49.64 138.76 49.34 138.88 49.28L139.18 49.22V49.16C139.18 48.86 138.7 48.38 138.4 48.44C138.22 48.44 138.28 48.62 137.92 48.62C137.74 48.8 137.56 49.16 137.44 49.16L137.38 49.1C137.32 49.04 137.32 49.04 137.26 49.04C137.32 49.04 137.32 49.1 137.32 49.16C137.56 49.1 132.46 53.54 132.16 53.66C131.56 53.96 130.96 55.22 130.3 55.1C129.22 56 127.3 57.8 125.98 58.4C125.74 58.46 125.14 58.94 124.18 59.72C123.28 60.5 121.96 61.1 120.28 61.46H119.74C118.12 61.46 116.92 60.62 116.26 58.94C116.08 58.46 116.14 58.22 116.44 57.8C116.44 57.74 116.38 57.5 116.38 57.44C116.38 56.72 117.16 54.92 117.16 54.14C117.22 53.84 117.7 52.7 117.7 52.22H117.94C118.12 52.22 118.18 51.92 118.18 51.26C118.18 51.14 118.48 50.78 118.6 50.66C118.9 50.36 119.44 49.82 120.22 49.16C121.06 48.5 121.66 48.02 122.08 47.78C122.62 47.6 123.7 46.52 124.18 46.28L125.14 45.56C126.4 44.54 127.3 43.7 127.3 43.28C127.3 43.22 127.18 43.04 127.18 42.98C127.18 42.8 127.24 42.74 127.42 42.74C127.48 42.74 127.72 42.86 127.78 42.86C128.08 42.86 128.62 42.08 128.68 42.08H129.34C129.52 42.08 129.52 41.9 129.34 41.72L129.22 41.6L129.52 41.24H129.88C130.6 40.52 132.16 39.26 132.58 38.96C132.58 38.18 132.64 38.54 133.06 38.12H133.24C133.42 38.12 133.54 38.06 133.54 37.94L133.48 37.88C133.42 37.82 133.42 37.76 133.42 37.7L134.08 37.28C134.98 36.8 136.06 35.96 136.06 35.42C136.06 35.3 135.88 35.06 136.12 35.06L136.24 35.12H136.36C136.42 35.12 136.72 34.7 136.78 34.64L136.84 34.58V34.28C136.84 34.22 138.22 33.5 138.28 33.26C138.52 33.02 140.5 31.16 140.5 31.04V30.74C140.5 30.56 140.86 30.56 140.86 30.5V30.26L141.28 30.02C141.52 29.84 141.64 29.72 141.64 29.6C141.1 29.48 142.06 29.18 142.3 28.94V28.58L143.08 27.8C143.62 27.32 143.92 27.08 143.92 27.02V26.96C143.86 26.9 143.86 26.84 143.86 26.78H144.04C144.1 26.78 144.28 26.54 144.64 26C145 25.46 145.24 25.16 145.36 25.1C145.66 25.1 145.84 24.98 145.84 24.68C145.84 24.62 145.78 24.38 145.78 24.32C146.02 24.08 146.74 23.9 146.44 23.78L146.38 23.72C146.38 23.66 146.98 22.88 148.12 21.32C149.26 19.7 149.86 18.74 149.86 18.32V17.96C149.86 17.78 150.28 17.36 150.28 17.18V17.06L150.22 17C150.22 16.94 150.34 16.82 150.52 16.7C150.16 16.34 150.46 15.92 150.46 15.56C150.46 14.42 149.26 13.52 148.06 13.52H148C147.82 13.52 146.98 13.58 146.8 13.58ZM144.76 14.72C144.7 14.66 144.7 14.66 144.7 14.6L144.88 14.54C144.88 14.66 144.82 14.72 144.76 14.72ZM142.12 15.86C142.12 15.8 142.12 15.74 142.18 15.74C142.3 15.74 142.36 15.8 142.36 15.86L142.24 15.92C142.18 15.92 142.12 15.92 142.12 15.86ZM140.5 18.08H140.62L140.56 18.14L140.5 18.08ZM138.64 19.82H138.82C138.82 19.88 138.82 19.88 138.76 19.88C138.7 19.88 138.64 19.88 138.64 19.82ZM147.46 21.26V21.38V21.26ZM146.08 23.18H146.14H146.08ZM145.18 24.92V24.86V24.92ZM129.1 30.8V30.86V30.8ZM137.74 32.96V33.02V32.96ZM137.74 33.08C137.74 33.14 137.8 33.2 137.86 33.2L137.74 33.08ZM127.18 33.32V33.38V33.32ZM126.58 33.8C126.58 33.74 126.7 33.74 126.7 33.8C126.7 33.98 126.58 33.98 126.58 33.8ZM123.52 37.82V38C123.46 38 123.4 37.94 123.4 37.76L123.52 37.82ZM123.7 38.48H123.64V38.42L123.7 38.48ZM122.68 40.52C122.5 40.52 122.44 40.46 122.44 40.34C122.5 40.34 122.62 40.4 122.68 40.52ZM129.1 41.6V41.72C129.04 41.72 128.98 41.66 128.98 41.6H129.1ZM120.28 43.46C120.34 43.4 120.46 43.34 120.46 43.52C120.34 43.52 120.28 43.52 120.28 43.46ZM119.74 45.26H119.8H119.74ZM122.02 47.12V47.18V47.12ZM121.12 47.24H121.18H121.12ZM134.32 53.12V53H134.38C134.38 53.06 134.38 53.12 134.32 53.12ZM138.928 47C138.868 47 138.868 47.06 138.928 47.12C138.928 47.36 138.388 47.42 138.388 47.48C138.388 47.54 138.448 47.72 138.448 47.78V47.9C138.388 47.96 138.328 48.02 138.208 48.02C137.908 48.56 137.788 48.86 137.788 48.92C137.368 48.98 137.128 49.7 137.188 50C137.128 50.18 136.708 50.24 136.708 50.3C136.108 51.08 135.808 51.74 135.748 52.4L135.388 52.46C135.148 52.52 134.488 53.84 133.348 56.36C133.528 56.42 133.588 56.54 133.588 56.6C133.408 56.72 133.348 56.96 133.468 57.2C133.468 57.32 133.408 57.44 133.288 57.56L133.408 57.68C133.588 57.74 133.828 57.98 133.828 58.16L134.308 58.64C134.488 59.12 135.028 59.36 135.868 59.36C136.048 59.36 136.408 59.18 136.468 59.18H137.068C137.488 58.76 138.268 58.4 138.688 57.98L138.748 57.92C138.808 57.92 138.868 57.92 138.928 57.98C139.348 57.98 139.828 57.68 140.368 57.14C140.548 57.08 140.668 56.96 140.668 56.9L140.608 56.84C140.548 56.78 140.548 56.72 140.548 56.66C140.788 56.66 140.968 56.6 141.148 56.42C141.208 56.36 141.208 56 141.448 55.82C141.508 55.76 142.228 55.34 142.408 55.16C142.468 54.98 142.528 54.74 142.528 54.56C142.708 54.32 142.888 54.14 143.188 54.08C143.188 53.6 143.788 53.3 144.028 53.06C144.088 53 144.208 52.46 144.268 52.28C144.628 51.86 146.248 49.88 146.008 49.1C146.008 48.92 145.648 48.92 145.648 48.68H145.888C146.068 48.62 146.128 48.5 146.128 48.32V47.78V47.66V47.36V47.18L146.068 47C146.008 46.94 146.008 46.82 146.008 46.64C145.768 46.4 145.648 45.8 145.468 45.56C145.408 45.5 145.288 45.38 144.988 45.2L144.508 45.02C144.388 44.96 144.328 44.84 144.328 44.72C144.328 44.54 144.448 44.36 144.448 44.3C144.448 43.82 143.728 43.16 143.248 43.16C142.828 43.16 142.168 43.64 141.148 44.66C140.128 45.62 139.588 46.34 139.468 46.76C139.468 46.94 138.988 46.82 138.928 47ZM143.668 45.26H143.728H143.668ZM142.888 46.94C142.888 46.64 143.248 46.16 143.548 46.16C143.608 46.16 143.848 46.4 144.028 46.4L144.088 46.34C144.148 46.28 144.208 46.28 144.268 46.28H144.388C144.448 46.34 144.508 46.52 144.508 46.7C144.688 47 144.748 47.42 144.748 47.96C144.748 48.38 144.508 48.44 144.628 48.68V48.74C144.628 49.04 144.268 49.58 144.268 49.76C144.208 50 143.968 50.48 143.428 51.14C142.888 51.8 142.648 52.1 142.648 52.16C142.648 52.22 142.708 52.28 142.828 52.34C142.828 52.4 142.828 52.4 142.888 52.46C142.888 52.64 142.108 52.88 142.048 53.12C141.568 53.42 140.488 54.68 140.248 54.92H140.068L139.828 55.34C139.648 55.7 139.108 56.12 138.208 56.66C137.308 57.2 136.708 57.5 136.288 57.5H135.688C135.388 57.5 135.268 57.2 135.268 56.54V56.3C135.688 55.52 135.868 55.04 135.808 54.86L136.468 54.26V54.08L136.588 53.9C136.888 54.14 138.868 51.8 139.288 51.5V51.26C139.288 51.2 139.408 51.14 139.588 51.14C140.008 50.84 140.608 50.18 141.388 49.22C142.168 48.2 142.708 47.48 142.888 46.94ZM138.148 50.06V49.94V50.06ZM138.448 50.72H138.328H138.448ZM144.688 50.9V50.96H144.628L144.688 50.9ZM144.088 51.2C143.968 51.2 143.908 51.14 143.908 51.02C144.028 51.02 144.088 51.08 144.088 51.2ZM136.288 52.04C136.288 52.1 136.288 52.1 136.228 52.1L136.288 52.04ZM136.108 52.16C136.168 52.16 136.168 52.16 136.168 52.1L136.228 52.16L136.168 52.22L136.108 52.16ZM143.428 52.52C143.428 52.34 143.488 52.28 143.608 52.28C143.608 52.34 143.608 52.34 143.668 52.34V52.52L143.608 52.64C143.488 52.64 143.428 52.58 143.428 52.52ZM140.728 56.24H140.668H140.728ZM145.942 59.18C145.942 59.36 146.242 59.72 146.842 60.14H146.902C147.142 60.14 147.622 59.72 147.862 59.78C147.922 59.72 147.922 59.72 147.922 59.66V59.6C147.922 59.42 148.222 59.24 148.222 59.18L148.162 59.12V58.94C148.162 58.64 148.402 58.22 148.882 57.68C149.422 57.2 149.662 56.84 149.662 56.54L149.902 56.3C150.322 55.88 150.982 54.2 151.642 53.72C151.702 53.66 151.702 53.6 151.702 53.42L152.182 52.88C152.242 52.82 152.242 52.76 152.242 52.58C154.702 49.16 156.142 47.48 156.622 47.48C156.922 47.48 157.222 47.84 157.522 48.56C157.822 49.28 158.062 49.7 158.242 49.76C159.502 50.72 160.522 51.2 161.302 51.2C161.362 51.32 161.722 51.5 162.382 51.68V51.98C162.382 52.04 162.022 52.34 162.022 52.4C162.022 52.94 161.782 53.48 161.362 53.9C161.362 54.02 161.362 54.08 161.422 54.08V54.14C161.422 54.38 161.122 54.8 161.122 54.98C161.302 55.4 161.422 56.18 161.482 57.26C161.722 58.28 162.622 59.12 164.242 59.84C164.302 59.84 165.022 60.08 165.322 60.08H166.642V60.02L166.762 60.08C166.762 60.14 167.002 59.96 167.122 59.9C167.602 59.9 168.082 59.3 168.262 59.3C168.322 59.3 168.442 59.42 168.622 59.42H168.802C169.222 59.24 169.942 58.64 170.962 57.62L171.502 57.08C171.682 57.02 171.922 56.84 172.102 56.66C172.102 56.42 176.002 53.42 176.362 52.94L176.542 52.52V52.46C176.482 52.4 176.362 52.34 176.302 52.34C176.002 52.34 175.462 52.64 174.682 53.3L174.202 53.66C173.662 53.84 172.942 54.38 171.922 55.16C170.902 55.94 170.182 56.6 169.702 57.14L167.362 58.28C166.822 58.28 166.522 58.34 166.402 58.46H166.042H165.322C165.142 58.46 164.902 58.28 164.842 58.28C164.422 58.28 164.122 58.22 163.942 58.04C163.642 57.56 162.862 56.84 162.862 56.36L162.922 56.3V56.24C162.802 55.94 162.802 55.58 162.922 55.28C162.922 55.22 162.802 54.98 162.802 54.92C162.802 54.14 163.342 52.58 163.882 52.1L164.242 51.74C164.302 51.68 164.602 51.62 165.022 51.62C165.082 51.56 165.142 51.56 165.202 51.56C165.442 51.56 165.502 51.86 165.742 51.44C166.282 51.38 168.142 50.36 168.922 50.42C168.982 50.42 169.282 49.82 169.702 49.82C170.362 49.04 171.022 48.62 171.682 48.62C171.622 48.2 172.642 47.24 173.182 46.94C173.182 46.88 173.182 46.88 173.242 46.88V46.76L173.182 46.64L173.602 45.98C173.782 45.74 174.082 45.02 174.262 44.84L174.622 44.48C174.562 44.18 174.922 43.7 174.922 43.46V43.28C174.922 43.16 175.042 43.1 175.042 42.86L174.982 42.74V42.32C174.982 42.26 174.502 41.96 174.442 41.72H174.382C174.322 41.78 174.262 41.78 174.082 41.78L173.902 41.66H173.362C173.302 41.72 173.242 41.72 173.122 41.72H172.882C172.462 41.78 171.622 42.62 171.202 42.68L170.362 43.52L169.942 43.7C169.342 44.06 168.802 44.54 168.322 45.08V45.26C168.262 45.32 168.142 45.32 168.022 45.32L165.862 47.6C165.802 47.6 165.802 47.6 165.802 47.66H165.862V47.78C165.862 47.84 164.722 48.68 164.662 48.86L164.182 49.4L164.002 49.46C164.062 49.76 163.702 50.3 163.402 50.3C161.722 50.3 160.402 49.76 159.382 48.62C158.962 48.32 158.062 44.72 157.402 44.96L157.282 45.02C157.102 45.14 156.862 44.9 156.382 45.14C156.262 45.14 156.202 45.08 156.202 45.02L156.262 44.96L156.442 44.84C156.442 44.78 156.322 44.66 156.322 44.6H156.382C156.382 44.54 156.982 43.82 157.462 43.16L157.822 42.74C157.822 42.68 157.642 42.32 157.642 42.14C157.462 41.96 157.222 41.42 156.982 41.42H156.382C156.322 41.42 156.262 41.48 156.262 41.6L155.782 42.14V42.38C155.782 42.62 154.822 43.52 154.822 43.7V43.94C154.822 44.18 154.342 44.48 154.342 44.9C154.282 44.9 153.982 45.2 153.442 45.8V45.86C153.502 45.92 153.622 45.74 153.142 46.88C152.962 47.42 152.842 47.66 152.782 47.72C152.542 47.78 152.122 48.38 152.062 48.44C152.002 48.8 151.462 49.76 150.442 51.32L148.762 53.96L148.222 54.56C148.282 54.56 148.282 54.56 148.342 54.62L148.402 54.68V54.74C148.402 54.98 147.562 55.76 147.562 56C147.622 56.06 147.622 56.12 147.622 56.18L147.142 56.84C147.142 57.08 147.022 57.32 146.722 57.62C146.782 57.8 146.842 57.92 146.842 57.98C146.422 57.98 145.942 58.7 145.942 59.18ZM168.682 46.34C168.862 46.04 169.702 45.32 170.002 45.26L170.662 44.54C171.202 44.54 172.462 43.34 173.122 43.34L173.302 43.4C173.422 43.46 173.482 43.52 173.482 43.58C173.482 43.82 173.302 44.24 173.302 44.42L173.002 44.66V44.78C172.942 44.9 172.942 45.02 173.002 45.08C171.742 46.7 170.602 47.72 169.702 48.02C169.162 48.68 168.502 49.04 167.842 49.22C167.662 49.22 167.422 49.16 167.362 49.16C167.302 49.16 167.242 49.22 167.242 49.28V49.4L166.882 49.76H166.402C166.282 49.82 166.102 49.88 165.922 49.88C165.622 49.88 165.502 49.82 165.502 49.7C165.322 49.58 168.622 46.46 168.682 46.34ZM153.802 45.92H153.682C153.682 45.86 153.682 45.86 153.742 45.86L153.802 45.92ZM166.762 47.12C166.822 47.12 166.822 47.18 166.822 47.24C166.762 47.24 166.762 47.18 166.762 47.12ZM166.942 47.72C166.942 47.78 166.942 47.78 166.882 47.78V47.66L166.942 47.72ZM162.202 53.3V53.24H162.262L162.202 53.3Z" fill="#D0B580"/>
</svg>
