<svg width="30" height="30" viewBox="0 0 30 30" fill="none" xmlns="http://www.w3.org/2000/svg">
<path opacity="0.4" d="M25.7754 10.5625C24.4629 4.7875 19.4254 2.1875 15.0004 2.1875C15.0004 2.1875 15.0004 2.1875 14.9879 2.1875C10.5754 2.1875 5.52536 4.775 4.21286 10.55C2.75036 17 6.70036 22.4625 10.2754 25.9C11.6004 27.175 13.3004 27.8125 15.0004 27.8125C16.7004 27.8125 18.4004 27.175 19.7129 25.9C23.2879 22.4625 27.2379 17.0125 25.7754 10.5625Z" fill="#0D2038"/>
<path d="M15 16.8252C17.1746 16.8252 18.9375 15.0623 18.9375 12.8877C18.9375 10.7131 17.1746 8.9502 15 8.9502C12.8254 8.9502 11.0625 10.7131 11.0625 12.8877C11.0625 15.0623 12.8254 16.8252 15 16.8252Z" fill="#0D2038"/>
</svg>
