<svg width="150" height="40" viewBox="0 0 150 40" fill="none" xmlns="http://www.w3.org/2000/svg">
<path d="M0.0102878 38.8203C-0.0634449 39.2995 0.268352 39.6313 0.710749 39.6313H5.06098C5.42964 39.6313 5.72457 39.3364 5.76144 39.0415L7.38356 27.6498H7.45729L13.6877 39.5945C13.7983 39.8157 14.0932 40 14.3144 40H14.978C15.1624 40 15.4942 39.8157 15.6048 39.5945L21.7983 27.6498H21.872L23.531 39.0415C23.5679 39.3364 23.8997 39.6313 24.2315 39.6313H28.5817C29.0241 39.6313 29.3559 39.2995 29.2822 38.8203L25.1163 14.0461C25.0794 13.7143 24.7476 13.4562 24.4527 13.4562H23.8628C23.6785 13.4562 23.3467 13.6037 23.2361 13.8249L14.6831 29.7512H14.6094L6.05637 13.8249C5.94577 13.6037 5.61397 13.4562 5.42964 13.4562H4.83978C4.54485 13.4562 4.21305 13.7143 4.17619 14.0461L0.0102878 38.8203Z" fill="white"/>
<path d="M33.9985 38.9309C33.9985 39.2995 34.2934 39.6313 34.6989 39.6313H49.9616C50.3671 39.6313 50.6621 39.2995 50.6621 38.9309V34.9124C50.6621 34.5438 50.3671 34.212 49.9616 34.212H39.7496V29.235H48.1552C48.5238 29.235 48.8556 28.9401 48.8556 28.5346V24.5161C48.8556 24.1475 48.5238 23.8157 48.1552 23.8157H39.7496V19.2442H49.9616C50.3671 19.2442 50.6621 18.9124 50.6621 18.5438V14.5253C50.6621 14.1567 50.3671 13.8249 49.9616 13.8249H34.6989C34.2934 13.8249 33.9985 14.1567 33.9985 14.5253V38.9309Z" fill="white"/>
<path d="M55.5999 38.9309C55.5999 39.2995 55.9317 39.6313 56.3003 39.6313H60.6874C61.0929 39.6313 61.3879 39.2995 61.3879 38.9309V25.1797H61.4247L75.987 39.8157C76.0607 39.8894 76.3556 40 76.4662 40H77.0561C77.4248 40 77.7565 39.7051 77.7565 39.3364V0.700461C77.7565 0.331797 77.4248 0 77.0561 0H72.6321C72.2266 0 71.9317 0.331797 71.9317 0.700461V27.6129H71.8948L57.1851 13.4562H56.2635C55.8948 13.4562 55.563 13.7512 55.563 14.1198L55.5999 38.9309Z" fill="white"/>
<path d="M84.1128 38.9307C84.1128 39.2994 84.4077 39.6312 84.8133 39.6312H100.076C100.481 39.6312 100.776 39.2994 100.776 38.9307V34.9123C100.776 34.5436 100.481 34.2118 100.076 34.2118H89.864V29.2349H98.2695C98.6381 29.2349 98.9699 28.9399 98.9699 28.5344V24.516C98.9699 24.1473 98.6381 23.8155 98.2695 23.8155H89.864V19.2441H100.076C100.481 19.2441 100.776 18.9123 100.776 18.5436V14.5252C100.776 14.1565 100.481 13.8247 100.076 13.8247H84.8133C84.4077 13.8247 84.1128 14.1565 84.1128 14.5252V38.9307Z" fill="white"/>
<path d="M109.032 38.9307C109.032 39.2994 109.364 39.6312 109.733 39.6312H114.157C114.525 39.6312 114.857 39.2994 114.857 38.9307V19.2441H120.129C120.534 19.2441 120.829 18.9123 120.829 18.5436V14.5252C120.829 14.1565 120.534 13.8247 120.129 13.8247H103.76C103.355 13.8247 103.06 14.1565 103.06 14.5252V18.5436C103.06 18.9123 103.355 19.2441 103.76 19.2441H109.032V38.9307Z" fill="white"/>
<path d="M122.483 26.7648C122.483 34.1381 128.345 39.9998 135.718 39.9998C143.091 39.9998 148.99 34.1381 148.99 26.7648C148.99 19.3915 143.091 13.4561 135.718 13.4561C128.345 13.4561 122.483 19.3915 122.483 26.7648ZM128.382 26.7648C128.382 22.7095 131.7 19.3547 135.718 19.3547C139.774 19.3547 143.091 22.7095 143.091 26.7648C143.091 30.7832 139.774 34.1012 135.718 34.1012C131.7 34.1012 128.382 30.7832 128.382 26.7648Z" fill="white"/>
<rect x="83.7144" y="2.76416" width="41.4747" height="6.91244" rx="0.5" fill="white"/>
<rect x="129.032" y="2.3042" width="20.7373" height="6.91244" rx="0.5" fill="#D0B580"/>
</svg>
