<svg width="20" height="20" viewBox="0 0 20 20" fill="none" xmlns="http://www.w3.org/2000/svg">
<g opacity="0.5">
<path d="M14.2781 12.8778C13.4796 12.8778 12.7601 13.2226 12.2608 13.7712L7.7695 10.9895C7.8894 10.6825 7.95591 10.3491 7.95591 10.0003C7.95591 9.65141 7.8894 9.318 7.7695 9.01117L12.2608 6.22937C12.7601 6.77792 13.4796 7.1229 14.2781 7.1229C15.7824 7.1229 17.0061 5.89914 17.0061 4.39488C17.0061 2.89062 15.7824 1.66699 14.2781 1.66699C12.7739 1.66699 11.5501 2.89075 11.5501 4.39501C11.5501 4.7438 11.6167 5.0772 11.7365 5.38416L7.24536 8.16584C6.74601 7.61728 6.02656 7.27231 5.22802 7.27231C3.72375 7.27231 2.5 8.49619 2.5 10.0003C2.5 11.5046 3.72375 12.7283 5.22802 12.7283C6.02656 12.7283 6.74601 12.3835 7.24536 11.8348L11.7365 14.6165C11.6167 14.9234 11.5501 15.2569 11.5501 15.6058C11.5501 17.1099 12.7739 18.3337 14.2781 18.3337C15.7824 18.3337 17.0061 17.1099 17.0061 15.6058C17.0061 14.1015 15.7824 12.8778 14.2781 12.8778ZM12.5449 4.39501C12.5449 3.4393 13.3224 2.66174 14.2781 2.66174C15.2338 2.66174 16.0114 3.4393 16.0114 4.39501C16.0114 5.35072 15.2338 6.12828 14.2781 6.12828C13.3224 6.12828 12.5449 5.35072 12.5449 4.39501ZM5.22802 11.7336C4.27218 11.7336 3.49462 10.956 3.49462 10.0003C3.49462 9.04462 4.27218 8.26705 5.22802 8.26705C6.18373 8.26705 6.96116 9.04462 6.96116 10.0003C6.96116 10.956 6.18373 11.7336 5.22802 11.7336ZM12.5449 15.6056C12.5449 14.6499 13.3224 13.8724 14.2781 13.8724C15.2338 13.8724 16.0114 14.6499 16.0114 15.6056C16.0114 16.5613 15.2338 17.3389 14.2781 17.3389C13.3224 17.3389 12.5449 16.5613 12.5449 15.6056Z" fill="#0D1117"/>
</g>
</svg>
