<svg width="24" height="24" viewBox="0 0 24 24" fill="none" xmlns="http://www.w3.org/2000/svg">
<path fill-rule="evenodd" clip-rule="evenodd" d="M5.55 4.5H8.25C8.7 4.5 9 4.2 9 3.75C9 3.3 8.7 3 8.25 3H3.75C3.3 3 3 3.3 3 3.75V8.25C3 8.7 3.3 9 3.75 9C4.2 9 4.5 8.7 4.5 8.25V5.55L8.475 9.525C8.775 9.825 9.225 9.825 9.525 9.525C9.825 9.225 9.825 8.775 9.525 8.475L5.55 4.5ZM15.75 3H20.25C20.7 3 21 3.3 21 3.75V8.25C21 8.7 20.7 9 20.25 9C19.8 9 19.5 8.7 19.5 8.25V5.55L15.525 9.525C15.225 9.825 14.775 9.825 14.475 9.525C14.175 9.225 14.175 8.775 14.475 8.475L18.45 4.5H15.75C15.3 4.5 15 4.2 15 3.75C15 3.3 15.3 3 15.75 3ZM19.5 15.75C19.5 15.3 19.8 15 20.25 15C20.7 15 21 15.3 21 15.75V20.25C21 20.7 20.7 21 20.25 21H15.75C15.3 21 15 20.7 15 20.25C15 19.8 15.3 19.5 15.75 19.5H18.45L14.475 15.525C14.175 15.225 14.175 14.775 14.475 14.475C14.775 14.175 15.225 14.175 15.525 14.475L19.5 18.45V15.75ZM4.5 18.45L8.475 14.475C8.775 14.175 9.225 14.175 9.525 14.475C9.825 14.775 9.825 15.225 9.525 15.525L5.55 19.5H8.25C8.7 19.5 9 19.8 9 20.25C9 20.7 8.7 21 8.25 21H3.75C3.3 21 3 20.7 3 20.25V15.75C3 15.3 3.3 15 3.75 15C4.2 15 4.5 15.3 4.5 15.75V18.45Z" fill="#0D1117"/>
</svg>
